<svg width="217" height="215" viewBox="0 0 217 215" fill="none" xmlns="http://www.w3.org/2000/svg">
<path fill-rule="evenodd" clip-rule="evenodd" d="M5.3849 108.574C61.3579 154.448 135.981 134.424 195.009 92.3575C196.024 91.6368 197.382 91.8238 198.037 92.7807C198.692 93.7376 198.404 95.1021 197.389 95.8228C136.71 139.071 59.9913 159.161 2.45099 112.001C1.55294 111.268 1.48228 109.904 2.29278 108.953C3.09902 108.007 4.48332 107.838 5.3849 108.574Z" fill="#D7D9E3"/>
<path d="M192.661 119.732C192.776 120.831 191.98 121.815 190.881 121.931C189.783 122.046 188.798 121.249 188.683 120.151L192.661 119.732ZM198.4 93.0569L198.41 91.0569C199.122 91.0604 199.779 91.4422 200.134 92.0594C200.489 92.6766 200.489 93.4361 200.134 94.0535L198.4 93.0569ZM170.267 89.5056C169.417 88.8002 169.3 87.5393 170.006 86.6893C170.711 85.8393 171.972 85.7222 172.822 86.4276L170.267 89.5056ZM188.683 120.151C188.032 113.969 190.122 106.869 192.226 101.509C193.294 98.7895 194.398 96.4376 195.236 94.7649C195.656 93.9275 196.009 93.2579 196.26 92.7946C196.385 92.5629 196.485 92.3827 196.554 92.2587C196.589 92.1968 196.616 92.1488 196.635 92.1156C196.644 92.0989 196.652 92.0859 196.657 92.0767C196.659 92.0721 196.662 92.0684 196.663 92.0657C196.664 92.0643 196.665 92.0632 196.665 92.0623C196.665 92.0618 196.666 92.0613 196.666 92.0611C196.666 92.0607 196.666 92.0603 198.4 93.0569C200.134 94.0535 200.134 94.0532 200.135 94.053C200.135 94.053 200.135 94.0529 200.135 94.0529C200.135 94.0529 200.134 94.0532 200.134 94.0537C200.134 94.0548 200.132 94.0567 200.131 94.0596C200.127 94.0654 200.122 94.0749 200.115 94.088C200.1 94.1141 200.077 94.1548 200.046 94.2093C199.986 94.3183 199.895 94.4828 199.778 94.6979C199.545 95.1281 199.211 95.7603 198.813 96.5561C198.015 98.1497 196.963 100.389 195.949 102.971C193.89 108.215 192.116 114.557 192.661 119.732L188.683 120.151ZM198.391 95.0568C194.844 95.0396 189.236 94.7604 183.88 93.9745C181.202 93.5816 178.543 93.0558 176.216 92.3562C173.933 91.6695 171.78 90.7611 170.267 89.5056L172.822 86.4276C173.714 87.1676 175.251 87.8891 177.368 88.5257C179.442 89.1494 181.894 89.6404 184.46 90.0169C189.593 90.7699 195.008 91.0403 198.41 91.0569L198.391 95.0568Z" fill="#D7D9E3"/>
</svg>
