<svg width="217" height="215" viewBox="0 0 217 215" fill="none" xmlns="http://www.w3.org/2000/svg">
<path fill-rule="evenodd" clip-rule="evenodd" d="M5.12708 106.608C61.1001 60.7337 135.723 80.7581 194.751 122.825C195.766 123.545 197.125 123.358 197.779 122.401C198.434 121.445 198.146 120.08 197.131 119.359C136.452 76.1115 59.7335 56.0214 2.19317 103.182C1.29512 103.914 1.22447 105.279 2.03497 106.229C2.84121 107.175 4.22551 107.344 5.12708 106.608Z" fill="#D7D9E3"/>
<path d="M192.403 95.45C192.519 94.3515 191.722 93.3673 190.623 93.2516C189.525 93.136 188.541 93.9328 188.425 95.0313L192.403 95.45ZM198.142 122.125L198.152 124.125C198.864 124.122 199.521 123.74 199.876 123.123C200.231 122.506 200.231 121.746 199.876 121.129L198.142 122.125ZM170.009 125.677C169.16 126.382 169.042 127.643 169.748 128.493C170.453 129.343 171.714 129.46 172.564 128.755L170.009 125.677ZM188.425 95.0313C187.774 101.213 189.864 108.313 191.968 113.673C193.036 116.393 194.141 118.745 194.978 120.417C195.398 121.255 195.752 121.924 196.002 122.387C196.128 122.619 196.227 122.799 196.296 122.923C196.331 122.985 196.358 123.033 196.377 123.067C196.386 123.083 196.394 123.096 196.399 123.105C196.402 123.11 196.404 123.114 196.405 123.116C196.406 123.118 196.407 123.119 196.407 123.12C196.408 123.12 196.408 123.121 196.408 123.121C196.408 123.121 196.408 123.122 198.142 122.125C199.876 121.129 199.877 121.129 199.877 121.129C199.877 121.129 199.877 121.129 199.877 121.129C199.877 121.129 199.877 121.129 199.876 121.128C199.876 121.127 199.875 121.125 199.873 121.123C199.87 121.117 199.864 121.107 199.857 121.094C199.842 121.068 199.819 121.027 199.789 120.973C199.728 120.864 199.637 120.699 199.52 120.484C199.288 120.054 198.954 119.422 198.555 118.626C197.757 117.032 196.705 114.793 195.691 112.211C193.633 106.967 191.858 100.625 192.403 95.45L188.425 95.0313ZM198.133 120.125C194.586 120.143 188.978 120.422 183.622 121.208C180.944 121.601 178.285 122.126 175.959 122.826C173.675 123.513 171.522 124.421 170.009 125.677L172.564 128.755C173.456 128.015 174.994 127.293 177.111 126.656C179.185 126.033 181.636 125.542 184.203 125.165C189.335 124.412 194.75 124.142 198.152 124.125L198.133 120.125Z" fill="#D7D9E3"/>
</svg>
