<svg width="199" height="46" viewBox="0 0 199 46" fill="none" xmlns="http://www.w3.org/2000/svg">
<g clip-path="url(#clip0_2101_24538)">
<path d="M56.7117 33.35H69.7673V29.6324H60.6927V12.2736H56.7117V33.35Z" fill="#FBFBFB"/>
<path d="M77.6128 33.7891C79.1936 33.7891 80.5841 33.4378 81.7842 32.7353C82.9941 32.0229 83.9358 31.0423 84.6091 29.7934C85.2921 28.5346 85.6336 27.0856 85.6336 25.4464C85.6336 23.8169 85.2969 22.3777 84.6237 21.1286C83.9504 19.87 83.0087 18.8844 81.7988 18.1721C80.5987 17.4598 79.2034 17.1036 77.6128 17.1036C76.0516 17.1036 74.6709 17.455 73.4707 18.1575C72.2706 18.86 71.329 19.8406 70.6459 21.0994C69.9629 22.3483 69.6213 23.7973 69.6213 25.4464C69.6213 27.0759 69.9531 28.52 70.6167 29.7787C71.2899 31.0277 72.2267 32.0083 73.4268 32.7206C74.6271 33.433 76.0224 33.7891 77.6128 33.7891ZM77.6128 30.0715C76.3736 30.0715 75.4321 29.6568 74.7881 28.8274C74.1537 27.9883 73.8367 26.8613 73.8367 25.4464C73.8367 24.0706 74.1391 22.9582 74.7441 22.1092C75.3588 21.2507 76.315 20.8212 77.6128 20.8212C78.8716 20.8212 79.8181 21.2409 80.4523 22.08C81.0963 22.9192 81.4183 24.0412 81.4183 25.4464C81.4183 26.8027 81.1012 27.915 80.4669 28.7835C79.8424 29.6421 78.8911 30.0715 77.6128 30.0715Z" fill="#FBFBFB"/>
<path d="M93.5066 33.7891C94.2482 33.7891 94.9312 33.7012 95.5558 33.5256C96.19 33.35 96.7657 33.1012 97.2828 32.7792V34.3746C97.3024 34.96 97.151 35.4479 96.829 35.8382C96.5168 36.2383 96.0973 36.5359 95.5704 36.731C95.0434 36.936 94.4823 37.0384 93.8872 37.0384C93.331 37.0384 92.8138 36.9164 92.3358 36.6725C91.8674 36.4286 91.5063 36.0724 91.2526 35.604L87.5643 37.3896C88.1692 38.4142 89.0327 39.2387 90.1549 39.8632C91.2771 40.4974 92.5114 40.8146 93.8579 40.8146C95.0191 40.8146 96.0973 40.6584 97.0925 40.3462C98.0878 40.0437 98.927 39.5803 99.61 38.9557C100.303 38.3313 100.776 37.536 101.03 36.57C101.117 36.2285 101.176 35.8821 101.205 35.5308C101.244 35.1893 101.264 34.8234 101.264 34.4331V17.5427H97.7804V18.421C97.2437 18.0013 96.6339 17.6793 95.9509 17.455C95.2776 17.2207 94.5312 17.1036 93.7115 17.1036C92.1991 17.1036 90.8818 17.4647 89.7598 18.1867C88.6376 18.9088 87.7643 19.8992 87.1398 21.158C86.525 22.4069 86.2178 23.8364 86.2178 25.4464C86.2178 27.0271 86.5202 28.4468 87.1252 29.7056C87.7399 30.9642 88.5937 31.9596 89.6865 32.6914C90.7794 33.4232 92.0527 33.7891 93.5066 33.7891ZM94.1506 30.2471C93.292 30.2471 92.5895 30.0324 92.043 29.6031C91.4966 29.1738 91.0916 28.5981 90.8282 27.876C90.5648 27.1442 90.433 26.3343 90.433 25.4464C90.433 24.5682 90.5696 23.7681 90.8428 23.046C91.1161 22.3142 91.5356 21.7337 92.1015 21.3042C92.6772 20.8652 93.4091 20.6456 94.297 20.6456C95.546 20.6456 96.4387 21.0897 96.9754 21.9776C97.5121 22.8557 97.7804 24.012 97.7804 25.4464C97.7804 26.8807 97.5072 28.0419 96.9608 28.9298C96.4241 29.808 95.4875 30.2471 94.1506 30.2471Z" fill="#FBFBFB"/>
<path d="M110.72 33.7891C112.3 33.7891 113.691 33.4378 114.891 32.7353C116.101 32.0229 117.042 31.0423 117.715 29.7934C118.398 28.5346 118.74 27.0856 118.74 25.4464C118.74 23.8169 118.404 22.3777 117.73 21.1286C117.057 19.87 116.116 18.8844 114.906 18.1721C113.705 17.4598 112.31 17.1036 110.72 17.1036C109.158 17.1036 107.778 17.455 106.577 18.1575C105.377 18.86 104.436 19.8406 103.753 21.0994C103.07 22.3483 102.728 23.7973 102.728 25.4464C102.728 27.0759 103.06 28.52 103.723 29.7787C104.397 31.0277 105.333 32.0083 106.534 32.7206C107.734 33.433 109.129 33.7891 110.72 33.7891ZM110.72 30.0715C109.48 30.0715 108.539 29.6568 107.895 28.8274C107.26 27.9883 106.943 26.8613 106.943 25.4464C106.943 24.0706 107.246 22.9582 107.851 22.1092C108.466 21.2507 109.422 20.8212 110.72 20.8212C111.978 20.8212 112.925 21.2409 113.559 22.08C114.203 22.9192 114.525 24.0412 114.525 25.4464C114.525 26.8027 114.208 27.915 113.574 28.7835C112.949 29.6421 111.998 30.0715 110.72 30.0715Z" fill="#FBFBFB"/>
<path d="M120.495 15.3473H124.476V11.8346H120.495V15.3473ZM120.495 33.3501H124.476V17.5427H120.495V33.3501Z" fill="#FBFBFB"/>
<path d="M127.079 40.3755H131.089V32.7792C131.606 33.1012 132.177 33.35 132.801 33.5256C133.436 33.7012 134.123 33.7891 134.865 33.7891C136.319 33.7891 137.593 33.4232 138.686 32.6914C139.778 31.9596 140.627 30.9642 141.232 29.7056C141.847 28.4468 142.154 27.0271 142.154 25.4464C142.154 23.8364 141.842 22.4069 141.218 21.158C140.603 19.8992 139.734 18.9088 138.612 18.1867C137.49 17.4647 136.173 17.1036 134.661 17.1036C133.841 17.1036 133.09 17.2207 132.407 17.455C131.733 17.6793 131.128 18.0013 130.592 18.421V17.5427H127.079V40.3755ZM134.221 30.2471C132.894 30.2471 131.958 29.808 131.411 28.9298C130.864 28.0419 130.592 26.8807 130.592 25.4464C130.592 24.012 130.86 22.8557 131.397 21.9776C131.943 21.0897 132.835 20.6456 134.075 20.6456C134.963 20.6456 135.69 20.8652 136.256 21.3042C136.832 21.7337 137.256 22.3142 137.529 23.046C137.802 23.7681 137.939 24.5682 137.939 25.4464C137.939 26.3343 137.807 27.1442 137.544 27.876C137.28 28.5981 136.875 29.1738 136.329 29.6031C135.783 30.0324 135.08 30.2471 134.221 30.2471Z" fill="#FBFBFB"/>
<path d="M149.367 33.7891C151.435 33.7891 153.055 33.3257 154.226 32.3986C155.396 31.4716 155.982 30.1983 155.982 28.5786C155.982 27.3491 155.601 26.3783 154.841 25.666C154.089 24.9537 152.811 24.3632 151.006 23.895C149.776 23.5826 148.858 23.3289 148.254 23.1338C147.659 22.9387 147.263 22.7484 147.068 22.563C146.883 22.3777 146.791 22.1483 146.791 21.8751C146.791 21.4165 147.009 21.0653 147.449 20.8212C147.898 20.5773 148.488 20.4798 149.22 20.5286C150.771 20.6456 151.621 21.3092 151.767 22.5191L155.836 21.7872C155.631 20.353 154.928 19.2162 153.728 18.377C152.528 17.5281 150.996 17.1036 149.132 17.1036C147.22 17.1036 145.693 17.5525 144.551 18.4502C143.41 19.3479 142.838 20.5578 142.838 22.08C142.838 23.29 143.234 24.2462 144.024 24.9487C144.814 25.6416 146.176 26.2367 148.108 26.7344C149.249 27.0369 150.088 27.2808 150.625 27.4662C151.171 27.6516 151.523 27.8419 151.678 28.037C151.835 28.2224 151.913 28.4713 151.913 28.7835C151.913 29.2811 151.717 29.6714 151.328 29.9544C150.938 30.2276 150.381 30.3642 149.659 30.3642C148.78 30.3642 148.053 30.1544 147.478 29.7348C146.913 29.3153 146.546 28.7347 146.38 27.9931L142.312 28.6078C142.575 30.2569 143.317 31.5351 144.537 32.4426C145.766 33.3403 147.376 33.7891 149.367 33.7891Z" fill="#FBFBFB"/>
<path d="M163.326 33.8185C164.467 33.8185 165.462 33.6281 166.312 33.2476C167.161 32.8671 167.873 32.3597 168.449 31.7255V33.3501H171.961V17.5427H167.951V25.5635C167.951 26.5393 167.838 27.3296 167.614 27.9346C167.4 28.5298 167.122 28.9835 166.78 29.2957C166.439 29.5983 166.073 29.8031 165.682 29.9105C165.292 30.0178 164.926 30.0715 164.585 30.0715C163.736 30.0715 163.077 29.8812 162.609 29.5007C162.15 29.1201 161.818 28.6469 161.613 28.081C161.409 27.515 161.287 26.954 161.248 26.3977C161.208 25.8318 161.189 25.3684 161.189 25.0073V17.5427H157.149V26.4125C157.149 26.6758 157.168 27.0954 157.208 27.6711C157.247 28.2468 157.359 28.886 157.545 29.5885C157.73 30.2813 158.037 30.9497 158.467 31.5937C158.906 32.2377 159.516 32.7694 160.296 33.1891C161.076 33.6086 162.087 33.8185 163.326 33.8185Z" fill="#FBFBFB"/>
<path d="M174.266 33.35H178.276V23.7777C178.276 22.8704 178.525 22.1337 179.023 21.5676C179.53 20.992 180.198 20.7041 181.028 20.7041C181.897 20.7041 182.575 20.9969 183.063 21.5824C183.56 22.1581 183.809 22.9679 183.809 24.012V33.35H187.79V23.7777C187.79 22.8704 188.039 22.1337 188.537 21.5676C189.044 20.992 189.712 20.7041 190.541 20.7041C191.411 20.7041 192.088 20.9969 192.576 21.5824C193.073 22.1581 193.323 22.9679 193.323 24.012V33.35H197.303V22.9581C197.303 21.231 196.84 19.8357 195.913 18.7721C194.996 17.6988 193.635 17.1621 191.829 17.1621C190.815 17.1621 189.883 17.3816 189.034 17.8207C188.185 18.2599 187.507 18.86 186.999 19.621C186.59 18.8795 186.004 18.2843 185.243 17.8354C184.482 17.3866 183.535 17.1621 182.404 17.1621C181.447 17.1621 180.57 17.3524 179.769 17.733C178.969 18.1037 178.305 18.6161 177.778 19.2697V17.5426H174.266V33.35Z" fill="#FBFBFB"/>
<path d="M23.3198 0C10.6173 0 0.319824 10.2974 0.319824 23C13.0224 23 23.3198 12.7026 23.3198 0Z" fill="#FBFBFB"/>
<path d="M23.3198 46C36.0224 46 46.3198 35.7026 46.3198 23C33.6173 23 23.3198 33.2974 23.3198 46Z" fill="#FBFBFB"/>
<path d="M23.3198 0C36.0224 0 46.3198 10.2974 46.3198 23C33.6173 23 23.3198 12.7026 23.3198 0Z" fill="#FBFBFB"/>
<path d="M23.3198 46C10.6173 46 0.319823 35.7026 0.319824 23C13.0224 23 23.3198 33.2974 23.3198 46Z" fill="#FBFBFB"/>
</g>
<defs>
<clipPath id="clip0_2101_24538">
<rect width="197.8" height="46" fill="white" transform="translate(0.319824)"/>
</clipPath>
</defs>
</svg>
