<svg id="design" xmlns="http://www.w3.org/2000/svg" viewBox="0 0 200 180"><defs><style>.cls-1{fill:#005eb8;}.cls-2{fill:#fbb040;}.cls-3{fill:#ed8b00;}.cls-4{fill:#0f89db;}.cls-5{fill:#f0f0f0;}.cls-6{fill:none;stroke:#eaeaea;stroke-linecap:round;stroke-miterlimit:10;stroke-width:6px;}.cls-7{fill:#eaeaea;}</style></defs><title>sciencesoft-guarantees</title><path class="cls-1" d="M103,38.91H98V58.51h10V38.91Z"/><path class="cls-1" d="M103,38.91h5V58.51h-5Z"/><path class="cls-2" d="M24.6,150.78h35v9.61h-35a5.09,5.09,0,0,1-5-5h0A5,5,0,0,1,24.6,150.78Z"/><path class="cls-3" d="M14.61,131.17H47.67v9.61H14.61a5.09,5.09,0,0,1-5-5h0A5.34,5.34,0,0,1,14.61,131.17Z"/><path class="cls-2" d="M5,112H44.6v9.61H5a5.09,5.09,0,0,1-5-5H0A4.77,4.77,0,0,1,5,112Z"/><path class="cls-3" d="M14.61,92.35H47.67V102H14.61a5.09,5.09,0,0,1-5-5h0A5.34,5.34,0,0,1,14.61,92.35Z"/><path class="cls-2" d="M24.6,72.74h35v9.61h-35a5.09,5.09,0,0,1-5-5h0A5,5,0,0,1,24.6,72.74Z"/><circle class="cls-4" cx="103.03" cy="116.57" r="63.43"/><path class="cls-4" d="M166.47,116.57A63.5,63.5,0,0,0,103,53.13V179.62A62.93,62.93,0,0,0,166.47,116.57Z"/><path class="cls-5" d="M156.47,112A53.39,53.39,0,0,0,108,63.51l-5,4.61-5-4.61A53.39,53.39,0,0,0,49.59,112l4.61,5-4.61,5A53.39,53.39,0,0,0,98,170.39l5-4.61,5,4.61a53.39,53.39,0,0,0,48.44-48.44l-4.61-5Z"/><path class="cls-1" d="M59.21,112H49.59c0,1.54-.38,3.08-.38,5a23.65,23.65,0,0,0,.38,5h9.61Z"/><path class="cls-1" d="M156.47,112h-9.61v9.61h9.61c0-1.54.38-3.08.38-5A18.72,18.72,0,0,1,156.47,112Z"/><path class="cls-2" d="M103,100.8l-6.15,2.69A14.36,14.36,0,0,0,88.42,117,14.6,14.6,0,0,0,103,131.56a15,15,0,0,0,13.46-8.46l15.76-35.37Z"/><path class="cls-1" d="M98,160.39V170c1.54,0,3.08.38,5,.38a21.92,21.92,0,0,0,5-.38v-9.61H98Z"/><path class="cls-1" d="M103,63.13a23.65,23.65,0,0,0-5,.38v9.61h10V63.51A21.92,21.92,0,0,0,103,63.13Z"/><path class="cls-1" d="M108,63.51c-1.54,0-3.08-.38-5-.38v9.61h5Z"/><path class="cls-1" d="M108,160.39h-5V170a23.65,23.65,0,0,0,5-.38Z"/><path class="cls-4" d="M103,33.91H88.42v9.61h29.22V33.91Z"/><path class="cls-4" d="M103,33.91h14.61v9.61H103Z"/><circle class="cls-3" cx="104.03" cy="116.38" r="7.5"/><line class="cls-6" x1="163.72" y1="59.98" x2="184.93" y2="59.98"/><polygon class="cls-7" points="181.87 70.45 200 59.98 181.87 49.5 181.87 70.45"/><line class="cls-6" x1="27.24" y1="32.99" x2="48.44" y2="32.99"/><polygon class="cls-7" points="45.38 43.46 63.52 32.99 45.38 22.52 45.38 43.46"/><line class="cls-6" x1="134.3" y1="10.47" x2="155.51" y2="10.47"/><polygon class="cls-7" points="152.45 20.94 170.58 10.47 152.45 0 152.45 20.94"/></svg>