<svg id="design" xmlns="http://www.w3.org/2000/svg" viewBox="0 0 200 180"><defs><style>.cls-1{fill:#ed8b00;}.cls-2{fill:#f0f0f0;}.cls-3{fill:#eaeaea;}.cls-4{fill:#fdcda5;}.cls-5{fill:#005eb8;}.cls-6{fill:#e8ab7f;}.cls-7{fill:#0a0080;}.cls-8{fill:#fff;}.cls-9{fill:#fbb040;}</style></defs><title>sciencesoft-guarantees</title><path class="cls-1" d="M61.66,75.87H51.59a20.23,20.23,0,0,1-14.4-6,7.7,7.7,0,0,0-10-.71l-3,2.23L16.59,61.27l3-2.23a20.46,20.46,0,0,1,26.61,1.89,7.61,7.61,0,0,0,5.42,2.24H61.66Z"/><path class="cls-1" d="M61.66,63.17H58.11a25.27,25.27,0,0,1-19.82-9.53,12.71,12.71,0,0,0-12-4.59l-8,1.34L16.18,37.87l8-1.34a25.41,25.41,0,0,1,24,9.18,12.63,12.63,0,0,0,9.91,4.76h3.54Z"/><path class="cls-2" d="M105.42,134.93c-2.73,6-.28,12.4,5.64,14.65l54.05,24.08c6.58,2.5,14.79-.61,18.57-7h0c4.1-7,2.84-11.89-4.45-14.27-6.47-2.11-53.21-26.81-57.9-28.33C114.79,121.91,108.37,128.43,105.42,134.93Z"/><path class="cls-3" d="M187.11,105.93l-24.59,55a9.39,9.39,0,0,0,7.3,13h0c6.35,1.12,13.92-4.67,15.55-10.86L199,108.84Z"/><path class="cls-4" d="M181.66,86.46l-.4,12.18.19.39a2.62,2.62,0,0,0-2.16,1.85,1.82,1.82,0,0,0,1.16,2.24l9.38,4.42,8.78,1.32c2.49-6.22.86-12.77.81-13l-1.62-9a1.55,1.55,0,0,0-1.8-1.44c-.71.07-1.68.49-1.74,2.44l.06-1.95a1.61,1.61,0,0,0-1.91-1.49c-.93.09-1.7,0-1.87,1.26l-.1-.41a1.68,1.68,0,0,0-2.18-1.49,2.27,2.27,0,0,0-1.77,2.08l-.57-.08a1.85,1.85,0,0,0-2.43-1.47A2.46,2.46,0,0,0,181.66,86.46Z"/><path class="cls-5" d="M87.29,29.4S63.62,38.1,62.66,54s-5.4,25-21.88,40S-.35,111.06,6.28,128.55c10.67,27.8-14.6,24.84-3.31,39s54.11-8.41,59-17.65,28.44.27,32.7-15.6,26.73-9.54,33.3-21-1.64-26.5,1.19-32.82c10.39-23.16.8-43.6-18-49.17C93.9,26.18,87.29,29.4,87.29,29.4Z"/><path class="cls-2" d="M97.67,117.09c-28.76,0-52.9,26.76-59.64,62.91H157.3C150.57,143.85,126.43,117.09,97.67,117.09Z"/><polygon class="cls-4" points="108.13 127 99.32 137.46 90.52 127 90.52 107.18 108.13 107.18 108.13 127"/><path class="cls-6" d="M108,106.27H90.52v10a13.25,13.25,0,0,0,5,1c4.75,0,9.17-2.54,12.62-6.8v-4.18Z"/><path class="cls-4" d="M72,73.67c0,21,12.25,37.84,27.31,37.65S126.48,94,126.45,73,114.19,35.21,99.13,35.39,71.92,52.7,72,73.67Z"/><path class="cls-4" d="M66.74,73.35c0,5.77,2.91,10.41,6.46,10.36S79.66,79,79.64,73.2,76.73,62.8,73.17,62.84,66.73,67.58,66.74,73.35Z"/><path class="cls-5" d="M101.71,45.26S84.77,64,66.24,68.28c0,0,1.18-30.72,27.31-34.79,0,0,31.41-1.49,34.3,28.11C127.85,61.6,103.45,55.43,101.71,45.26Z"/><ellipse class="cls-7" cx="94.6" cy="75.42" rx="2.32" ry="4.12"/><path class="cls-7" d="M101,66.55c-2-.32-4.12-.53-6.23-.74a14.33,14.33,0,0,0-3-.11,6.57,6.57,0,0,0-2.75,1h0c-.21.11-.42.11-.53-.11s-.11-.42.11-.53a8.65,8.65,0,0,1,3-1.48c1.16-.21,2.22-.21,3.27-.32,2.11,0,4.22,0,6.34.11a1.11,1.11,0,1,1-.11,2.22c0,.11,0,0-.11,0Z"/><ellipse class="cls-7" cx="116.57" cy="75.42" rx="2.32" ry="4.12"/><path class="cls-7" d="M110.13,66.55c2-.32,4.12-.53,6.23-.74a14.33,14.33,0,0,1,3-.11,6.57,6.57,0,0,1,2.75,1h0c.21.11.42.11.53-.11s.11-.42-.11-.53a8.65,8.65,0,0,0-3-1.48c-1.16-.21-2.22-.21-3.27-.32-2.11,0-4.22,0-6.34.11a1.11,1.11,0,1,0,.11,2.22c0,.11,0,0,.11,0Z"/><path class="cls-8" d="M104.31,92.95a32.55,32.55,0,0,1-11.09-1.8,11.2,11.2,0,0,0,22.17,0A36.4,36.4,0,0,1,104.31,92.95Z"/><path class="cls-9" d="M61.66,50.48h71.82v12.7H61.66Z"/><polygon class="cls-1" points="54.21 12.48 56.61 17.35 61.98 18.13 58.1 21.92 59.01 27.27 54.21 24.75 49.4 27.27 50.32 21.92 46.43 18.13 51.8 17.35 54.21 12.48"/><polygon class="cls-9" points="146.66 0 149.87 6.49 157.03 7.54 151.85 12.59 153.07 19.73 146.66 16.36 140.25 19.73 141.48 12.59 136.29 7.54 143.46 6.49 146.66 0"/><polygon class="cls-1" points="158.63 29.1 161.03 33.97 166.4 34.76 162.51 38.55 163.43 43.9 158.63 41.37 153.82 43.9 154.74 38.55 150.85 34.76 156.22 33.97 158.63 29.1"/></svg>