<svg id="design" xmlns="http://www.w3.org/2000/svg" viewBox="0 0 200 180"><defs><style>.cls-1{fill:#eaeaea;}.cls-2{fill:#d6d6d6;}.cls-3{fill:#005eb8;}.cls-4{fill:#0383db;}.cls-5{fill:#fbb040;}</style></defs><title>sciencesoft-guarantees</title><path class="cls-1" d="M192.31,98.87l2.64-7.08-5.5-5.53-6.81,2.43L180,87.58l-3.08-6.64-7.8-.11L166,87.47l-2.64,1.11L156.47,86,151,91.57l2.42,6.86-1.1,2.66-6.6,3.1-.11,7.86,6.6,3.1,1.1,2.66-2.53,7,5.5,5.53,6.81-2.43,2.64,1.11,3,6.75,7.8.11,3.08-6.64,2.64-1.11,6.92,2.55,5.5-5.53-2.42-6.86,1.1-2.66,6.6-3.1.11-7.86-6.6-3.1Zm-12.16,16.91a10.37,10.37,0,0,1-14.73-.05,10.54,10.54,0,0,1,.05-14.83,10.37,10.37,0,0,1,14.73.05A10.54,10.54,0,0,1,180.14,115.78Z"/><path class="cls-1" d="M46.72,98.87l2.64-7.08-5.5-5.53L37,88.69,34.4,87.58l-3.08-6.64-7.8-.11-3.08,6.64-2.64,1.11L10.88,86l-5.5,5.53L7.8,98.43l-1.1,2.66-6.6,3.1L0,112l6.6,3.1,1.1,2.66-2.53,7,5.5,5.53,6.81-2.43L20.12,129l3,6.75,7.8.11L34,129.19l2.64-1.11,6.92,2.55L49,125.1l-2.42-6.86,1.1-2.66,6.6-3.1.11-7.86-6.6-3.1ZM34.55,115.78a10.37,10.37,0,0,1-14.73-.05,10.54,10.54,0,0,1,.05-14.83,10.37,10.37,0,0,1,14.73.05A10.54,10.54,0,0,1,34.55,115.78Z"/><path class="cls-2" d="M119.51,18,122.15,11l-5.5-5.53-6.81,2.43L107.2,6.75,104.12.11,96.32,0,93.24,6.64,90.6,7.75,83.68,5.2l-5.5,5.53L80.6,17.6l-1.1,2.66-6.6,3.1-.11,7.86,6.6,3.1L80.49,37l-2.53,7,5.5,5.53L90.27,47l2.64,1.11,3,6.75,7.8.11,3.08-6.64,2.64-1.11,6.92,2.55,5.5-5.53L119.4,37.4l1.1-2.66,6.6-3.1.11-7.86-6.6-3.1ZM107.35,34.95a10.37,10.37,0,0,1-14.73-.05,10.54,10.54,0,0,1,.05-14.83,10.37,10.37,0,0,1,14.73.05A10.54,10.54,0,0,1,107.35,34.95Z"/><path class="cls-3" d="M128.1,64l-26.8-26.8a1.83,1.83,0,0,0-2.59,0L71.9,64a1.83,1.83,0,0,0,1.29,3.13H88.89V180h22.22V67.13H126.8A1.83,1.83,0,0,0,128.1,64Z"/><path class="cls-4" d="M35,106.7l26.8-26.8a1.83,1.83,0,0,1,3.13,1.29V97.34a54.42,54.42,0,0,1,46.18,53.78V180H88.89V151.12a32.26,32.26,0,0,0-24-31.13v14.81a1.83,1.83,0,0,1-3.13,1.29L35,109.28A1.83,1.83,0,0,1,35,106.7Z"/><path class="cls-5" d="M165,106.7l-26.8-26.8a1.83,1.83,0,0,0-3.13,1.29V97.34a54.42,54.42,0,0,0-46.18,53.78V180h22.22V151.12a32.26,32.26,0,0,1,24-31.13v14.81a1.83,1.83,0,0,0,3.13,1.29l26.8-26.8A1.83,1.83,0,0,0,165,106.7Z"/></svg>