<svg id="design" xmlns="http://www.w3.org/2000/svg" xmlns:xlink="http://www.w3.org/1999/xlink" viewBox="0 0 200 180"><defs><style>.cls-1,.cls-18{fill:none;}.cls-2{fill:#f0f0f0;}.cls-3{clip-path:url(#clip-path);}.cls-17,.cls-4{fill:#005eb8;}.cls-5{fill:#d9935c;}.cls-6{fill:#cb7d45;}.cls-7{fill:#fbb040;}.cls-8{fill:#ed8b00;}.cls-9{fill:#e2e2e2;}.cls-10{clip-path:url(#clip-path-2);}.cls-11{fill:#fdcda5;}.cls-12{fill:#e8ab7f;}.cls-13{fill:#0a0080;}.cls-14{fill:#c9e8ff;}.cls-15{clip-path:url(#clip-path-3);}.cls-16{fill:#0f89db;}.cls-17,.cls-18{stroke:#fff;stroke-width:5px;}.cls-17{stroke-linejoin:round;}.cls-18{stroke-miterlimit:10;}</style><clipPath id="clip-path"><path class="cls-1" d="M200,41.67v61.47a15.39,15.39,0,0,1-9.61,14.27c-.33.13-.67.26-1,.37a15.44,15.44,0,0,1-4.77.75H123.14A13.14,13.14,0,0,1,110,105.39h0V41.67a13.14,13.14,0,0,1,13.14-13.14h63.72A13.14,13.14,0,0,1,200,41.67Z"/></clipPath><clipPath id="clip-path-2"><path class="cls-1" d="M82.86,12.1V68.69A14.13,14.13,0,0,1,73.8,81.91l-.48.18a14.26,14.26,0,0,1-4.62.77H14.17a13.66,13.66,0,0,1-2.12-.16,14.16,14.16,0,0,1-12-14V12.1A12.1,12.1,0,0,1,12.1,0H70.76A12.1,12.1,0,0,1,82.86,12.1Z"/></clipPath><clipPath id="clip-path-3"><path class="cls-1" d="M136.94,90.87V162a17.94,17.94,0,0,1-17.88,18H49.89a17.94,17.94,0,0,1-18-17.88V90.87A15.88,15.88,0,0,1,47.76,75h73.31A15.88,15.88,0,0,1,136.94,90.87Z"/></clipPath></defs><path class="cls-2" d="M200,41.67v61.47a15.39,15.39,0,0,1-9.61,14.27c-.33.13-.67.26-1,.37a15.44,15.44,0,0,1-4.77.75H123.14A13.14,13.14,0,0,1,110,105.39h0V41.67a13.14,13.14,0,0,1,13.14-13.14h63.72A13.14,13.14,0,0,1,200,41.67Z"/><g class="cls-3"><path class="cls-4" d="M167.51,44.23h0a15.4,15.4,0,0,0-5.82-.17A18.72,18.72,0,0,0,153.9,47c-3,2-7.33,6.4-2.49,18.4l2.3,4.13c-.77,9-4.44,9-4.44,9a8.4,8.4,0,0,0,2.39.79s1.13-.43,1.36-1.06a4.08,4.08,0,0,1-.52,1.3s6.24.59,9.36-1.77c1.7-1.28,3.55-4.29,4.75-7.35l4.72.33a9.46,9.46,0,0,1-3,6.78s5.83.57,7.8-1a5.35,5.35,0,0,1-.75,1.14s6.51.23,9.2-1.8S185.59,40.5,167.51,44.23Z"/><path class="cls-5" d="M190.08,118.53H144a46.38,46.38,0,0,1-.69-10.12,21,21,0,0,1,4.14-10.58A36.41,36.41,0,0,1,155.1,90l.29,0c.33-.06.9-.15,1.51-.2h0c.57-.3.81-2.39.88-4.84v-10l7.78-1.54h0l5.33-1.06.62-.12h.16a46.47,46.47,0,0,0,.3,5.53,37.07,37.07,0,0,0,.65,3.91h0c1,4.3,2.48,6.89,3.57,7.32h.11C181.34,90,189.4,103.75,190.08,118.53Z"/><path class="cls-6" d="M157.5,74.84s.3,4.13.31,8c7.34-.21,11.22-6.9,12.81-10.61Z"/><path class="cls-5" d="M155,78.52s17.37.29,17.38-10.53,2.26-18.07-8.83-18.71-13.25,3.49-14.13,7.1S150.53,78.17,155,78.52Z"/><path class="cls-4" d="M155.69,49s4.76,12.69,12.05,14.57,10.46-.08,10.46-.08a20.67,20.67,0,0,1-6.76-12.21S159.27,43,155.69,49Z"/><path class="cls-4" d="M156.87,50s-3.55,2.83-4.42,5.59-1.26,8.43-2.91,8.23c0,0-3.58-8.63.44-13.51C154.25,45.19,156.87,50,156.87,50Z"/><path class="cls-4" d="M156.21,50.48S159.59,63.77,168.8,68c0,0-9.21-8.17-10-16.94S156.21,50.48,156.21,50.48Z"/><path class="cls-7" d="M200.13,112l-.87-2.09-.43-1h0c-4-9.53-7.19-16.73-7.5-17.25-.9-1.51-13.13-3-14.92-3-1.3,0-2-4.31-2.3-6.67a.88.88,0,0,0-1-.76,1,1,0,0,0-.37.14l-.39.25-.48.31-.48.29-.32.19-.37.2-.33.18L170,83l-.33.16-.26.12-.49.21-.35.15-.25.1c-.45.18-.89.34-1.34.48a18.46,18.46,0,0,1-9.23.87h-.15a1.42,1.42,0,0,0-1.72,1,1.38,1.38,0,0,0,0,.64c.27,1.23.34,2.57-.35,3.24-3.11.69-10.67,2.62-12.08,5.31-1,1.93-1.11,13.29-1.66,23.38h54.81a15.44,15.44,0,0,0,4.77-.75c.35-.11.68-.24,1-.37C201.63,115.55,200.87,113.72,200.13,112Z"/><path class="cls-8" d="M183.51,118.53h-7.35c1.86-3.08,3.63-5.31,4.66-5.44S182.63,115.29,183.51,118.53Z"/><path class="cls-8" d="M176.4,88.57s-9.16,5.8-16.09,4.43c0,0-1.66-1,.63-2.11S168.1,87,167,84.08a22.73,22.73,0,0,0,5.73-2.8.88.88,0,0,1,1.21.22,1,1,0,0,1,.15.4C174.38,84.26,175.09,88.57,176.4,88.57Z"/></g><path class="cls-9" d="M82.86,12.1V68.69A14.13,14.13,0,0,1,73.8,81.91l-.48.18a14.26,14.26,0,0,1-4.62.77H14.17a13.66,13.66,0,0,1-2.12-.16,14.16,14.16,0,0,1-12-14V12.1A12.1,12.1,0,0,1,12.1,0H70.76A12.1,12.1,0,0,1,82.86,12.1Z"/><g class="cls-10"><path class="cls-11" d="M34.28,42.84S34,52.07,32.8,56.21l-9.36,6.53L58.66,68l-8.4-11.6S47.72,44,49.05,39.4,34.28,42.84,34.28,42.84Z"/><path class="cls-12" d="M34.23,44.11s2.78,6.7,8,6.56,6.44-6.08,6.44-6.08Z"/><path class="cls-13" d="M31.1,38.68s-1.69-8.46-2.88-11-2.17-14,10.93-14.58c0,0,5,.59,7.78-1.08,0,0,0,1.67-.69,2.27a8.72,8.72,0,0,1,8.08,2.86c3.55,3.94-2.36,17.73-2.07,21Z"/><path class="cls-11" d="M52.46,26.9v9.23a10.75,10.75,0,0,1-1,4.39h0a13.92,13.92,0,0,1-4.72,5.7,9.07,9.07,0,0,1-5.12,1.86,10,10,0,0,1-4.86-1.83,13.74,13.74,0,0,1-5.46-6.73h0V39.4a8.74,8.74,0,0,1-.43-2.68V26.9c0-2.29,1.6-4.16,3.55-4.16h14.5C50.86,22.74,52.46,24.61,52.46,26.9Z"/><path class="cls-7" d="M62.23,58.61s-8.27-1.78-12-2.21c-3.27,4.34-5.62,5.51-8.6,6.69-4.81-.66-8.86-6.74-8.86-6.88a49.43,49.43,0,0,0-10.2,2.1h0c-.34,0-13.14,1.82-31.85,35.68A17.62,17.62,0,0,0,3.5,102.83L15.15,92.72c0,1.14-.05,2.17,0,3.07.07,2.42.15,4.83.2,7.24h51c-.1-1.22-.18-2.4-.24-3.53-.18-3.51-.34-6.71-.49-9.64v-.17h0l2.58,2.24.58.51.52.45.72.63,1.33,1.15.62.54.33.28.38.33.28.24.65.57.53.46.44.38,1.57,1.37.61.52.62.53.42.37.19.16.62.54.6.52.24.2.25.21.6-.22A17.65,17.65,0,0,0,91,89.69C73.5,59.51,62.23,58.61,62.23,58.61Z"/><path class="cls-13" d="M30.86,32.12s0-5.88,4.67-6.78S50.6,28.2,52.08,23.92,32,19.71,30.86,22.45,30.86,32.12,30.86,32.12Z"/><path class="cls-8" d="M21.38,102.87h-6c-.05-2.41-.13-4.81-.2-7.24V91.78l.3.49C16.39,93.75,18.86,97.86,21.38,102.87Z"/><path class="cls-13" d="M46.78,42.15v4.07a9.07,9.07,0,0,1-5.12,1.86,10,10,0,0,1-4.86-1.83v-4.1A4.14,4.14,0,0,1,40.93,38h1.72a4.14,4.14,0,0,1,4.13,4.15Z"/><path class="cls-8" d="M80.32,101.69l-.6.22-.25-.21-.24-.2-.6-.52-.62-.54-.19-.16-.42-.37-.62-.53-.61-.52L74.6,97.49l-.44-.38-.53-.46L73,96.07l-.28-.24-.38-.33L72,95.21l-.62-.54-1.33-1.15-.72-.63-.52-.45-.58-.51L65.66,89.7h0c.48-.34,4.9-3.26,7.69,1.67A116.37,116.37,0,0,0,80.32,101.69Z"/><path class="cls-13" d="M51.5,40.51c-2,4.44-6.5,7.62-9.84,7.56S33,44.41,31.34,39.52h0V39.4s3.39,2.9,5.66,1.44h9.57A4.72,4.72,0,0,0,51.5,40.51Z"/><path class="cls-11" d="M42.82,41.65H40.75c-.47,0-1.08-.77-1.08-1.25a2.24,2.24,0,0,1,1.08-.47h2.06a1.75,1.75,0,0,1,1.28.67A1.43,1.43,0,0,1,42.82,41.65Z"/></g><path class="cls-14" d="M136.94,90.87V162a17.94,17.94,0,0,1-17.88,18H49.89a17.94,17.94,0,0,1-18-17.88V90.87A15.88,15.88,0,0,1,47.76,75h73.31A15.88,15.88,0,0,1,136.94,90.87Z"/><g class="cls-15"><path class="cls-11" d="M75.41,132.91s-.35,10.82-1.73,15.66l-11,7.64L104,162.39,94.13,148.8s-3-14.5-1.41-19.87S75.41,132.91,75.41,132.91Z"/><path class="cls-12" d="M75.36,134.41s3.26,7.85,9.4,7.68S92.3,135,92.3,135Z"/><path class="cls-16" d="M71.69,128.05s-2-9.9-3.37-12.9S65.78,98.77,81.13,98.07c0,0,5.88.69,9.11-1.27,0,0,0,2-.81,2.65a10.2,10.2,0,0,1,9.46,3.35c4.15,4.61-2.77,20.77-2.42,24.57Z"/><path class="cls-11" d="M84.06,139.05c-4.45-.08-12.64-6-12.64-13.35V114.25c0-2.68,1.87-4.87,4.15-4.87h17c2.28,0,4.15,2.19,4.15,4.87v10.81C96.7,132.76,89.16,139.14,84.06,139.05Z"/><path class="cls-16" d="M71.41,120.37s0-6.88,5.47-7.94,17.65,3.35,19.38-1.66S72.69,105.83,71.41,109,71.41,120.37,71.41,120.37Z"/><path class="cls-4" d="M109.93,151.85h0a7.65,7.65,0,0,0-1.76-.48h0A109.22,109.22,0,0,0,95.47,149l-1.34-.16c-2.71,3.59-4.87,5.24-7.15,6.38-.51.25-1,.48-1.54.7l-1.39.56A8.71,8.71,0,0,1,82.3,156c-.33-.12-.65-.25-1-.4a21.36,21.36,0,0,1-7.66-7l-1.78.2a59.75,59.75,0,0,0-10.17,2.07h0c-.32,0-11.55,1.59-28.74,27.56a18,18,0,0,0,16.9,11.88H119a18,18,0,0,0,17-12.09C122.94,158.44,113.63,153.22,109.93,151.85Z"/><path class="cls-7" d="M74.26,145.94a4.38,4.38,0,0,0-2.35,2.84s7.35,7.56,12.15,7.67Z"/><path class="cls-7" d="M84.06,156.45l9.48-10.89A4.46,4.46,0,0,1,95.47,149S88.13,156.74,84.06,156.45Z"/><path class="cls-7" d="M88.3,190.29H78.82C79.94,177.57,81.3,165,82,159.1c.13-1.2.24-2.11.31-2.7v-.75h3.08v1.1c.06.7.14,1.7.25,3C86.28,165.81,87.3,178,88.3,190.29Z"/><path class="cls-8" d="M80.45,152.59a45.48,45.48,0,0,1,7-.17.73.73,0,0,1,.65.82.71.71,0,0,1-.09.28c-.75,1.34-2.27,3.67-3.86,3.67C82,157.18,78.47,152.74,80.45,152.59Z"/></g><path class="cls-17" d="M100,92a25,25,0,1,1,24.54-25.45V67A24.8,24.8,0,0,1,100,92Z"/><line class="cls-18" x1="100.04" y1="55.44" x2="100.04" y2="78.63"/><line class="cls-18" x1="87.98" y1="67" x2="111.18" y2="67"/></svg>