<svg id="design" xmlns="http://www.w3.org/2000/svg" xmlns:xlink="http://www.w3.org/1999/xlink" viewBox="0 0 200 180"><defs><style>.cls-1,.cls-15,.cls-16,.cls-17,.cls-19,.cls-9{fill:none;}.cls-2{clip-path:url(#clip-path);}.cls-3{fill:#70bef2;}.cls-4{fill:#0f89db;}.cls-5{fill:#fdcda5;}.cls-6{fill:#005eb8;}.cls-7{fill:#e8ab7f;}.cls-8{fill:#20181f;}.cls-15,.cls-19,.cls-9{stroke:#20181f;stroke-linecap:round;stroke-linejoin:round;}.cls-9{stroke-width:1.25px;}.cls-10{fill:#c3e7fc;}.cls-11{fill:#fbb040;}.cls-12{fill:#4684e6;}.cls-13{fill:#ed908e;}.cls-14{fill:#f7de9e;}.cls-15{stroke-width:1.18px;}.cls-16,.cls-17{stroke:#fff;stroke-miterlimit:10;}.cls-16{stroke-width:1.34px;}.cls-17{stroke-width:1.32px;}.cls-18{fill:#eaeaea;}.cls-19{stroke-width:1.23px;}.cls-20{fill:#fff;}.cls-21{fill:#d6d6d6;}.cls-22{fill:#ed8b00;}</style><clipPath id="clip-path"><rect class="cls-1" width="200" height="180"/></clipPath></defs><title>sciencesoft-guarantees-</title><g class="cls-2"><path class="cls-3" d="M48,112.14l-32.91,1.37C11.6,127.34,9.76,158.32,8.87,180H30.36L34,151.86,38.84,180H59C55.41,155.78,49.83,118.76,48,112.14Z"/><path class="cls-4" d="M5.16,71s15-5.54,28.21-6c0,0,7-.45,19,2.74a.91.91,0,0,1,.67,1l-5,43.38-33,1.37Z"/><polygon class="cls-4" points="20.09 110.73 54.38 95.76 32.51 92.37 19.61 97.31 20.09 110.73"/><path class="cls-4" d="M.3,81.39c1.81,7.77,9.34,24.72,9.34,24.72a8,8,0,0,0,10.45,4.62h0a8,8,0,0,0,4.54-10.29L15.25,75.73A8,8,0,0,0,4.34,71.35h0C.59,73.14-.64,77.35.3,81.39Z"/><path class="cls-4" d="M44.6,81.15c4.77,6.39,17.47,17,17.47,17a8,8,0,0,0,11.42.05h0c3.09-3.11,3.11-7.14,0-10.27L56,70a8,8,0,0,0-11.76.36h0C41.56,73.47,42.12,77.82,44.6,81.15Z"/><path class="cls-5" d="M50.44,85.82s.75-4.07,6.73-5.52l6.39,4.49-2.27,2Z"/><polygon class="cls-5" points="27.75 84.79 19.89 87.93 22.96 96.03 27.24 94.39 27.75 84.79"/><polygon class="cls-4" points="27.75 84.79 71.29 87.38 68.62 100.48 27.24 94.39 27.75 84.79"/><path class="cls-6" d="M26.49,31.19c-2.27.15-10,2-7.39,9.57,3.11,9.2,4.65,10.37,4.65,10.37L23.5,37.46Z"/><path class="cls-6" d="M41.5,31.84s9,2.63,2.37,12.52L34.75,34.06Z"/><path class="cls-5" d="M38.83,47.48a3.84,3.84,0,0,0,3.69,4,3.8,3.8,0,0,0,3.82-3.8,3.84,3.84,0,0,0-3.69-4A3.8,3.8,0,0,0,38.83,47.48Z"/><path class="cls-5" d="M38.05,55.41l.51,10.1c.18,3.41-1.79,4.95-5,5.08h0c-2.78.11-5.89-1.08-5.92-4.1l-.05-15.32Z"/><path class="cls-7" d="M38.5,63.93,26.75,56.29C26.41,53.4,38,54.41,38,54.41Z"/><path class="cls-5" d="M34.63,59.55h0c5.29-.25,9.43-4.77,9.37-9.24L43.8,41a10.26,10.26,0,0,0-9.88-10.24h0c-5.55-.12-11.1,4.42-11.19,10.15L23,48.15A11.65,11.65,0,0,0,34.63,59.55Z"/><path class="cls-8" d="M32.7,40.82s2.85-.57,3,.26c0,0,.06.56-1.66.87s-3.07.4-3.29-.11S31.77,40.93,32.7,40.82Z"/><path class="cls-8" d="M41,41.93s2.52.07,2.45.91c0,0,.32.57-1.42.48s-2.6-.26-2.7-.81S40,41.83,41,41.93Z"/><path class="cls-9" d="M34.1,51.15a3.58,3.58,0,0,0,3.73.85"/><circle class="cls-8" cx="41.41" cy="45.85" r="0.87" transform="translate(-1.08 1) rotate(-1.37)"/><circle class="cls-8" cx="33.26" cy="46.38" r="0.87" transform="translate(-15.09 76.69) rotate(-86.43)"/><path class="cls-9" d="M38.35,47.1l1.21,2.14a.35.35,0,0,1-.07.46l-.75.41"/><path class="cls-6" d="M25.47,47.52s-1.65-7.69,1.92-11.59c0,0,14.73,4.47,17-1.53,3.23-8.5-6.1-11.06-11.43-8.52a17.29,17.29,0,0,0-6.47,5.31s-10,2.18-4.61,13.25Z"/><path class="cls-5" d="M18.1,48.2a3.8,3.8,0,0,0,3.66,3.92,3.76,3.76,0,0,0,3.78-3.76,3.8,3.8,0,0,0-3.66-3.92A3.76,3.76,0,0,0,18.1,48.2Z"/><path class="cls-9" d="M23.08,49.23s-.35-2.51-2.54-2.4"/><path class="cls-5" d="M27.75,65.49l-3.93.59s4.74,3.94,14,6.68L41,65.49l-5.48-.7Z"/><path class="cls-10" d="M75.91,75.31A5.47,5.47,0,0,1,86.61,73,82.45,82.45,0,0,1,87.83,83L76.56,86.4Z"/><path class="cls-5" d="M76.56,86.4,87.83,83l1.49,15.51a5.29,5.29,0,0,1-4.65,5.7h-.1a5.89,5.89,0,0,1-6.69-4.73Z"/><path class="cls-5" d="M93.22,142.08l-4.39-48.6s-2.05.49-4.82.93h0a4.91,4.91,0,0,0-4,5.93l7.22,41.85Z"/><circle class="cls-5" cx="91.15" cy="143.42" r="5.89" transform="translate(-75.68 175.77) rotate(-68.54)"/><path class="cls-5" d="M94.42,147.93s1.57,1.71,2.92-1.07,1.3-6.33-4-8.92Z"/><path class="cls-11" d="M57.68,43l23.15,5.25S89.44,60.45,85,77.9H46.6s-3.13-7,3.8-16.75c4.26-6,7.27-18.15,7.27-18.15"/><path class="cls-12" d="M71,160.88l5.83,28.56h20c-1.15-9.42-2.88-21.73-5.43-37C84.6,112,80.27,102.25,80.27,102.25L65.2,99.55,63.54,102l13,.41Z"/><path class="cls-12" d="M63.54,102l-5.82-.18S47.8,112.39,47.28,132c-.35,13.07,0,38.41.38,57.46H68.23L71,160.88l5.6-58.49Z"/><path class="cls-10" d="M69.08,67.62l-14.33,2a3,3,0,0,0-2.5,3.44l5,29.18H80.27l6-28a4.4,4.4,0,0,0-3.85-5.15Z"/><path class="cls-5" d="M42.3,74.7l5.2,14.4s-16.09,5.41-19.63,7.57c-4,2.44-7,1.33-9.15-2.84h0A8,8,0,0,1,22,83.2Z"/><path class="cls-10" d="M52.36,70.48a7.43,7.43,0,0,1,9.8,2.44c2.3,3.51,3.31,8.56-.26,10.75-2.56,1.57-14.39,5.42-14.39,5.42L42.3,74.7Z"/><path class="cls-5" d="M49.25,115.84,29.67,86.35a6.67,6.67,0,0,0-9.58-1.16h0c-3,2.44-2.78,7.76-.15,10.57l23.32,24.37Z"/><path class="cls-5" d="M62.3,119l-6.23-4.29.85-1.38a1.31,1.31,0,0,0-1.77-1.82l-7,4-4.93,4.57c3.2,3.57,5.56,3.85,7,3.43l.46.22,5.34,2.33a1.07,1.07,0,0,0,1.43-.31c.23-.34.37-.91-.62-1.6l1,.69a1.11,1.11,0,0,0,1.5-.35c.3-.44.09-1.1-.48-1.6l.78.43a1.14,1.14,0,0,0,1.6-.46,1.18,1.18,0,0,0-.42-1.49l-1.1-.75,1.36.53a1.24,1.24,0,0,0,1.68-.58A1.28,1.28,0,0,0,62.3,119Z"/><circle class="cls-13" cx="81.48" cy="48.85" r="4.06" transform="translate(27.09 126.74) rotate(-86.02)"/><path class="cls-11" d="M71.34,33.77c.51-.9-.15-2.59-.15-2.59-5.08,0-9.46,1.63-12,6.27-3.71,6.82-1,17.38,7.72,20.59,8.38,3.08,3.92-23.41,3.92-23.41Z"/><path class="cls-5" d="M76.12,59.72l-.56,8.83c-.19,3.1-2.2,4.64-5.25,4.43h0c-2.6-.18-5-1.69-5.1-4.3l1.55-13.85Z"/><polygon class="cls-7" points="75.74 67.08 65.42 56.98 76.2 58.82 75.74 67.08"/><path class="cls-5" d="M73.44,61.15h0c5.21,0,9.52-4.09,9.68-8.35l.31-10a9.9,9.9,0,0,0-9.21-10.24h0c-4-.28-11.28,5.67-11.52,9.12l-.16,8.08C62.42,56,67.2,60.72,73.44,61.15Z"/><path class="cls-14" d="M71.17,31.2h0Z"/><path class="cls-11" d="M83.22,40.35c.22-5.24-4.38-8.52-7.82-9.36a15.64,15.64,0,0,0-8.66.33c-3.33,1.12-6.94,3.6-4.48,9.07-1.61.8-3,1.7-3,1.7l6,7.18s.43-2,1.06-6.2c3.13-1.24,3-3.07,3.34-5A53.42,53.42,0,0,0,83.22,40.35Z"/><circle class="cls-5" cx="61.72" cy="48.85" r="4.06" transform="translate(8.7 107.03) rotate(-86.02)"/><path class="cls-15" d="M63.05,50.15s.2-2.94-2.63-2.67"/><polyline class="cls-15" points="77.44 49.19 77.77 51.84 76.39 51.89"/><path class="cls-8" d="M71.41,43.74s2.34-.19,2.36.76c0,0,0,.65-2,.77s-2.57,0-2.76-.63S70.31,43.74,71.41,43.74Z"/><path class="cls-8" d="M80.84,44s-1.93-.2-2.09.7c0,0-.09.61,1.6.74s2.24-.08,2.4-.57S81.76,44,80.84,44Z"/><circle class="cls-8" cx="72.14" cy="47.83" r="0.88" transform="translate(21.98 118.36) rotate(-88.12)"/><circle class="cls-8" cx="80.25" cy="47.83" r="0.88" transform="translate(29.83 126.47) rotate(-88.12)"/><path class="cls-15" d="M77.14,54.24s-2.91.82-4.43-1.3"/><line class="cls-16" x1="77.99" y1="47.3" x2="76.02" y2="47.3"/><line class="cls-16" x1="67.88" y1="47.3" x2="65.42" y2="47.3"/><circle id="_Ellipse_" data-name="&lt;Ellipse&gt;" class="cls-16" cx="71.93" cy="47.22" r="4.05"/><circle id="_Ellipse_2" data-name="&lt;Ellipse&gt;" class="cls-17" cx="81.77" cy="46.98" r="3.8"/><path class="cls-18" d="M130.45,161.11l5.88,42h21c-1.51-27.11-4.27-70.23-7.34-88.57L134.86,141Z"/><path class="cls-18" d="M111.34,115.12c-5.2,23.39-10.12,62.43-13,87.94h23.56l9.21-42L134.86,141,150,114.49Z"/><path class="cls-18" d="M109.44,64.21s9.36-3.72,23.46-3.72,22.49,6.19,22.49,6.19L150,114.49l-38.69.63-6.4-34.39Z"/><path class="cls-6" d="M116.74,36s-8.85-13.52,1.81-15.07c6.36-.93,8.2-2.93,16-5.65,9-3.15,21.39,6.93,8,16.92L121.7,27.6Z"/><circle class="cls-5" cx="140.33" cy="38.91" r="4.85"/><path class="cls-5" d="M135.64,44.91l.24,16.67c0,4.69-3.18,5-7.79,5h0c-3.94,0-5.94-1.42-6.43-5.33l.65-17.72Z"/><polygon class="cls-7" points="135.86 59.85 124.91 51.99 135.71 48.89 135.86 59.85"/><path class="cls-5" d="M130.62,53.39h.94a11.36,11.36,0,0,0,11.35-11.73L142.53,30A11.84,11.84,0,0,0,130.7,18.56h0c-6.54,0-13,5.3-13,11.84l.56,11.24A12.37,12.37,0,0,0,130.62,53.39Z"/><polyline class="cls-19" points="136.22 37.85 137 42.28 135.44 42.28"/><path class="cls-8" d="M130.11,32.67s2.62-.31,2.68.78c0,0,0,.74-2.26,1s-2.89.07-3.12-.61S128.88,32.72,130.11,32.67Z"/><path class="cls-8" d="M140.14,32.61s-2.17-.16-2.32.87c0,0-.08.7,1.82.79s2.51-.17,2.67-.74S141.17,32.6,140.14,32.61Z"/><path class="cls-20" d="M137.28,44.31h-7.33s0,2.57,4.24,2.57A2.94,2.94,0,0,0,137.28,44.31Z"/><path class="cls-19" d="M132.37,37.85a2.89,2.89,0,0,0-3,0"/><path class="cls-19" d="M141.16,37.85s-.86-.94-2.59,0"/><path class="cls-6" d="M119.83,39s7.45-4.74,4.78-11.41c0,0,12.08-5.83,17.63.24L143.73,20l-9.54-3.86-14.94,5.89-3.85,5.76,1.3,7.43Z"/><circle class="cls-5" cx="116.75" cy="38.91" r="4.85"/><path class="cls-19" d="M118.44,40.35s0-3.52-3.36-3"/><polygon class="cls-6" points="124.67 66.95 128.56 70.54 132.88 65.61 128.56 64.93 124.67 66.95"/><polygon class="cls-6" points="127.78 69.8 123.53 105.23 128.67 111.07 133.33 105.16 129.21 69.66 127.78 69.8"/><polygon class="cls-21" points="121.72 59.65 128.56 64.93 123.99 70.54 117.26 62.05 121.72 59.65"/><polygon class="cls-21" points="135.86 59.85 128.56 64.93 133.12 70.54 140.07 62.05 135.86 59.85"/><path class="cls-11" d="M80,203l-2.72-6.69-16.94-7.95.09-20.09,17-7.93,2.88-6.72L74,135.86l14.19-14.14,17.76,6.4,6.69-2.72,7.95-16.94,20.09.09,7.51,17.21,6.72,2.88,17.72-6.35,14.14,14.19-6.4,17.76,2.72,6.69L200,168.87,199.91,189l-17,7.93-2.88,6.72,6.35,17.72-14.19,14.14-17.76-6.4-6.69,2.72-7.95,16.94-20.09-.09-7.93-17-6.72-2.88-17.72,6.35L73.21,221Z"/><circle class="cls-20" cx="130.39" cy="178.49" r="26.89" transform="translate(-88.01 144.41) rotate(-44.98)"/><path class="cls-22" d="M106.77,201.89a33.47,33.47,0,0,1,0-47.16h0a33.47,33.47,0,0,1,47.16,0,33.62,33.62,0,0,1-.17,47.34,32.87,32.87,0,0,1-42.62,3.68A19.35,19.35,0,0,1,106.77,201.89Zm23.73-48.74c-6.74-.4-13.1,2.47-18.15,7.27h0a24.79,24.79,0,0,0-7.27,17.93c-.4,6.74,2.47,13.1,7.27,18.15a25.51,25.51,0,0,0,36.08-36.08,22.08,22.08,0,0,0-3.42-2.74A23,23,0,0,0,130.5,153.15Z"/><path class="cls-18" d="M119.07,67a8.92,8.92,0,0,0-12-1.8L69.58,87.89A9.6,9.6,0,0,0,66.86,101h0c3,4.74,6.77,5.71,11.25,2.35,4-3,39-21.3,41.87-23.46C124,76.81,122.22,70.89,119.07,67Z"/><path class="cls-18" d="M105.82,123.76l-26.74-33a8,8,0,0,0-11.57-.29h0c-3.27,3.26-2.43,9.59,1,12.64l30.62,26.45Z"/><path class="cls-5" d="M121.78,126.12l-7.93-4.41.86-1.74a1.57,1.57,0,0,0-2.32-2l-7.86,5.58-5.36,6c4.23,3.9,7.08,4,8.76,3.3l.57.21,6.65,2.18a1.28,1.28,0,0,0,1.67-.54c.24-.43.34-1.13-.93-1.83l1.27.7a1.33,1.33,0,0,0,1.75-.59c.31-.56,0-1.33-.76-1.85l1,.43a1.37,1.37,0,0,0,1.86-.74,1.42,1.42,0,0,0-.67-1.73l-1.4-.78,1.68.47a1.48,1.48,0,0,0,1.94-.89A1.54,1.54,0,0,0,121.78,126.12Z"/><path class="cls-18" d="M143.37,66.92c2.52-3.63,7-4.4,10.34-1.77L186,87.94c3.68,2.92,4.71,8.7,2.31,13.07h0c-2.59,4.73-5.85,5.7-9.72,2.33-3.43-3-33.6-21.38-36.08-23.55C139.09,76.75,140.65,70.84,143.37,66.92Z"/><path class="cls-18" d="M154.67,123.74l23.15-32.94a6.27,6.27,0,0,1,10-.27h0c2.82,3.26,2.08,9.59-.91,12.64l-26.49,26.39Z"/><path class="cls-5" d="M140.9,126.06l6.86-4.4-.74-1.75a1.75,1.75,0,0,1,.32-1.87,1.22,1.22,0,0,1,1.69-.1l6.77,5.6,4.61,6c-3.66,3.89-6.12,3.95-7.56,3.28l-.49.21-5.74,2.16a1,1,0,0,1-1.44-.54c-.2-.43-.29-1.13.8-1.83l-1.1.7a1.08,1.08,0,0,1-1.51-.59,1.63,1.63,0,0,1,.66-1.85l-.84.42a1.13,1.13,0,0,1-1.6-.74,1.52,1.52,0,0,1,.59-1.73l1.21-.77-1.45.47a1.24,1.24,0,0,1-1.68-.89A1.64,1.64,0,0,1,140.9,126.06Z"/></g></svg>