<svg id="design" xmlns="http://www.w3.org/2000/svg" xmlns:xlink="http://www.w3.org/1999/xlink" viewBox="0 0 200 180"><defs><style>.cls-1{fill:none;}.cls-2{fill:#005eb8;}.cls-3{fill:#0f89db;}.cls-4{fill:#d6d6d6;}.cls-5{clip-path:url(#clip-path);}.cls-6{fill:#ed8b00;}.cls-7{fill:#fbb040;}.cls-8{fill:#fff;}.cls-9{fill:#eaeaea;}</style><clipPath id="clip-path"><rect class="cls-1" x="30.93" y="19.01" width="98.92" height="81.94"/></clipPath></defs><title>sciencesoft-guarantees</title><path class="cls-2" d="M22.82,135H12.7a1.87,1.87,0,0,0,0,3.75H22.82a1.77,1.77,0,0,0,1.87-1.87C25.06,136.16,23.94,135,22.82,135Z"/><path class="cls-2" d="M22.82,124.17a7.49,7.49,0,1,0,0,15h.37a7.39,7.39,0,0,0,6.74-7.49A7,7,0,0,0,22.82,124.17ZM23.19,135h0a3.46,3.46,0,0,1-3.75-3.37,3.37,3.37,0,0,1,6.74,0A2.87,2.87,0,0,1,23.19,135Z"/><rect class="cls-2" x="22.82" y="135.04" width="11.24" height="4.12"/><path class="cls-2" d="M177.56,118.93h-6.74a11.62,11.62,0,0,0,0,23.23h6.74a11.67,11.67,0,0,0,11.61-11.62A11.44,11.44,0,0,0,177.56,118.93Z"/><path class="cls-2" d="M155.08,98.32a8.62,8.62,0,1,0,17.24,0h0V81.08A17.43,17.43,0,0,0,155.08,98.32Z"/><circle class="cls-2" cx="64.78" cy="170.26" r="9.74"/><circle class="cls-2" cx="75.27" cy="170.26" r="9.74"/><circle class="cls-2" cx="129.23" cy="170.26" r="9.74"/><circle class="cls-2" cx="139.72" cy="170.26" r="9.74"/><path class="cls-3" d="M133,89.7H74.9a41.21,41.21,0,0,0,0,82.43H133a41.21,41.21,0,0,0,0-82.43Z"/><path class="cls-2" d="M83.14,162.76c-21.36,0-39.34-17.61-39.34-39v-3.37a40.29,40.29,0,0,1,7.12-22.86,39.4,39.4,0,0,0-16.49,32.22v3.37a39.26,39.26,0,0,0,39.34,39h61.07a38.71,38.71,0,0,0,31.85-16.49,39.11,39.11,0,0,1-22.48,7.12H83.14Z"/><path class="cls-2" d="M132.6,98.69a8.62,8.62,0,1,0,17.24,0h0V81.46A17,17,0,0,0,132.6,98.69Z"/><path class="cls-4" d="M128.1,92.33H73.4a4.5,4.5,0,1,0,0,9h54.7a4.5,4.5,0,1,0,0-9Z"/><g class="cls-5"><circle class="cls-6" cx="100.47" cy="99.86" r="27.73" transform="translate(-37.13 133.51) rotate(-58.57)"/><circle class="cls-7" cx="100.41" cy="99.81" r="21.36" transform="translate(-37.12 133.43) rotate(-58.57)"/><path class="cls-8" d="M108.86,91.58l1.12-1.5c.37-.37,0-.75-.37-1.12L107,87.45c-.37-.37-.75,0-1.12.37l-.75,1.5c-3.37-1.5-6.74-.37-8.24,2.25-2.62,4.12.37,7.87,2.25,10.12,2.25,2.62,2.62,3.37,1.87,4.87-.75,1.12-3,.37-4.12-.37a6.67,6.67,0,0,1-2.62-3,1.38,1.38,0,0,0-1.12-.37l-3,1.5c-.37.37-.75.75-.37,1.12a14.67,14.67,0,0,0,3,3.75l-.75,1.5c-.37.37,0,.75.37,1.12l2.62,1.5c.37.37.75,0,1.12-.37l1.12-1.5c3.37,1.12,6.37,0,7.87-2.62,2.62-4.5-.37-8.24-2.62-10.49-2.25-2.62-2.62-3.37-1.87-4.12.75-1.12,2.62-.37,3.75.37a6,6,0,0,1,3,3.75c0,.37,0,.37.37.37h.75l3-.75c.37,0,.75-.37.75-1.12A20.62,20.62,0,0,0,108.86,91.58Z"/></g><g class="cls-5"><circle class="cls-6" cx="73.48" cy="46.96" r="27.73" transform="translate(-11.95 64.5) rotate(-44.19)"/><circle class="cls-7" cx="73.15" cy="46.58" r="21.36" transform="translate(-11.77 64.16) rotate(-44.19)"/><path class="cls-8" d="M83.39,53A6.7,6.7,0,0,0,83,44.74c-3.75-3.75-7.87-1.5-10.87,0s-3.75,1.87-4.5.75c-1.12-1.12.37-2.62,1.5-3.75a6.91,6.91,0,0,1,4.5-1.87c.37,0,.37,0,.75-.37l.37-.37V35.75A.81.81,0,0,0,74,35a11.86,11.86,0,0,0-6,1.5L66.9,35.37a.7.7,0,0,0-1.12,0l-2.25,2.25a.7.7,0,0,0,0,1.12l1.12,1.12c-2.25,3-2.25,6.37,0,8.62,3.37,3.75,7.49,1.5,10.12,0,3-1.5,4.12-1.87,5.25-.75s-.37,3-1.5,3.75-2.25,1.87-3.37,1.87c-.37,0-.75.37-.75,1.12l.75,3c0,.37.37.75,1.12.75A12.66,12.66,0,0,0,80.76,56l1.12,1.12a.7.7,0,0,0,1.12,0l2.25-2.25a.7.7,0,0,0,0-1.12Z"/></g><path class="cls-6" d="M33.21,33.08,28.94,34.7a1.28,1.28,0,0,0-.83.9l-1.72,4.11-1.61-4.27a1.28,1.28,0,0,0-.9-.83l-4.11-1.72L24,31.28a1.28,1.28,0,0,0,.83-.9l1.72-4.11,1.61,4.27a1.28,1.28,0,0,0,.9.83Z"/><path class="cls-6" d="M156.55,51.91l-4.27,1.61a1.28,1.28,0,0,0-.83.9l-1.72,4.11-1.61-4.27a1.28,1.28,0,0,0-.9-.83l-4.11-1.72,4.27-1.61a1.28,1.28,0,0,0,.83-.9l1.72-4.11,1.61,4.27a1.28,1.28,0,0,0,.9.83Z"/><path class="cls-7" d="M52.09,11.53l-7.3,2.81c-.78.19-1.07.83-1.37,1.32L40.56,23l-2.81-7.3c-.19-.78-.83-1.07-1.32-1.37l-7.37-2.86,7.3-2.81c.78-.19,1.07-.83,1.37-1.32L40.6,0l2.81,7.3c.19.78.83,1.07,1.32,1.37Z"/><circle class="cls-9" cx="155.08" cy="118.93" r="3.5"/></svg>