<svg width="3599" height="2667" viewBox="0 0 3599 2667" fill="none" xmlns="http://www.w3.org/2000/svg">
<g clip-path="url(#clip0_510_1518)">
<path d="M3598.91 0.000244141H0V2666.67H3598.91V0.000244141Z" fill="white"/>
<path d="M3141.77 2489.71C3141.05 2493.8 3231.93 2453.59 3240.32 2447.19C3273.63 2421.81 3303.09 2384.25 3323.43 2347.79C3372.84 2259.11 3412.16 2147.79 3440.72 2050.41C3470.71 1948.13 3478.95 1833.8 3431.88 1738.17C3376.35 1625.32 3272.25 1554.65 3235.97 1429.96C3189.81 1271.31 3204.07 982.68 3181.5 821C3144.5 647 3129.93 614.02 3027 477.5C2956.77 384.353 2843.43 298.36 2736.24 252.32C2515.31 157.427 2243.09 234.747 2038.49 337.16C1895.13 408.92 1762.92 503.347 1613.23 562.32C1452.88 625.467 1288.73 613.027 1120.53 630.32C988.893 643.854 849.551 688.507 774.032 797.173C712.869 885.173 702.253 1003.23 631.46 1083.69C566.737 1157.25 464.077 1185.21 390.215 1249.61C153.147 1456.29 194.547 1936.35 278.651 2200.05C303.796 2278.89 337.849 2357.23 395.732 2416.36C468.029 2490.23 576.88 2538.41 679.42 2525.4H3135.49C3135.49 2525.4 3141.76 2489.77 3141.77 2489.71Z" fill="#F6F3F3"/>
<path d="M3297.55 2477.72C3297.55 2410.52 2623.2 2356.05 1791.36 2356.05C959.516 2356.05 285.173 2410.52 285.173 2477.72C285.173 2544.92 959.516 2599.4 1791.36 2599.4C2623.2 2599.4 3297.55 2544.92 3297.55 2477.72Z" fill="#DCDCDC"/>
<path d="M698.7 1780.21C746.488 1791.01 904.164 1750.04 907.245 1736.4C910.328 1722.76 785.592 1617.96 737.805 1607.16C690.019 1596.36 642.527 1626.35 631.728 1674.13C620.929 1721.92 650.915 1769.41 698.7 1780.21Z" fill="#77B39A"/>
<path d="M732.912 1981.45C780.699 1992.25 938.375 1951.27 941.457 1937.63C944.539 1923.99 819.805 1819.2 772.017 1808.4C724.231 1797.6 676.737 1827.59 665.939 1875.37C655.14 1923.16 685.125 1970.65 732.912 1981.45Z" fill="#77B39A"/>
<path d="M760.093 2179.47C806.156 2196.16 967.717 2175.21 972.48 2162.07C977.245 2148.92 866.589 2029.35 820.527 2012.67C774.465 1995.97 723.596 2019.79 706.908 2065.84C690.22 2111.91 714.032 2162.77 760.093 2179.47Z" fill="#77B39A"/>
<path d="M2941.68 1654.45C2891.03 1672.8 2713.4 1649.77 2708.17 1635.32C2702.93 1620.87 2824.59 1489.4 2875.23 1471.05C2925.88 1452.71 2981.8 1478.89 3000.15 1529.53C3018.49 1580.17 2992.32 1636.11 2941.68 1654.45Z" fill="#77B39A"/>
<path d="M1009.05 2408.32C1009.05 2408.32 1402.95 1851.67 343.903 1340.87C343.903 1340.87 261.284 2549.08 1009.05 2408.32Z" fill="#B92B00"/>
<path d="M342.675 1338.84L1045.83 2330.61C1111.09 2161.45 1166.67 1736.28 342.675 1338.84Z" fill="#FF5303"/>
<path d="M1016.15 2291.07C1015.41 2291.07 1014.69 2290.73 1014.24 2290.08L340.771 1340.19C340.025 1339.13 340.271 1337.68 341.325 1336.93C342.376 1336.2 343.839 1336.44 344.58 1337.49L1018.05 2287.39C1018.79 2288.44 1018.55 2289.89 1017.49 2290.64C1017.08 2290.93 1016.61 2291.07 1016.15 2291.07Z" fill="#A22001"/>
<path d="M694.256 1837.07C694.088 1837.07 693.917 1837.05 693.747 1837.01L378.021 1766.71C376.763 1766.43 375.972 1765.17 376.249 1763.92C376.535 1762.67 377.784 1761.89 379.039 1762.15L694.763 1832.45C696.023 1832.73 696.813 1833.97 696.535 1835.24C696.292 1836.33 695.327 1837.07 694.256 1837.07Z" fill="#A22001"/>
<path d="M838.513 2040.55C837.344 2040.55 836.333 2039.67 836.197 2038.48L799.783 1723.04C799.635 1721.76 800.553 1720.6 801.836 1720.45C803.115 1720.35 804.276 1721.23 804.423 1722.51L840.836 2037.93C840.984 2039.21 840.065 2040.37 838.783 2040.52C838.695 2040.53 838.603 2040.55 838.513 2040.55Z" fill="#A22001"/>
<path d="M837.024 2371.63C837.024 2371.63 917.701 1887.27 71.0521 1888.43C71.0521 1888.43 396.525 2697.43 837.024 2371.63Z" fill="#FF5303"/>
<path d="M71.0521 1888.43L837.024 2371.63C837.024 2371.63 465.221 2746.48 71.0521 1888.43Z" fill="#B92B00"/>
<path d="M243.449 2099.55C243.568 2099.57 243.691 2099.6 243.813 2099.61L451.545 2122.39C453.121 2122.56 454.535 2121.43 454.707 2119.85C454.88 2118.28 453.721 2116.88 452.172 2116.69L244.439 2093.92C242.864 2093.75 241.451 2094.88 241.277 2096.45C241.119 2097.89 242.073 2099.21 243.449 2099.55Z" fill="#FF5303"/>
<path d="M477.876 2320.29C478.083 2320.35 478.301 2320.37 478.525 2320.37L755.068 2322.8C756.645 2322.81 757.943 2321.55 757.956 2319.96C757.969 2318.39 756.719 2317.08 755.115 2317.08L478.572 2314.64C476.992 2314.63 475.696 2315.91 475.683 2317.48C475.672 2318.84 476.609 2319.99 477.876 2320.29Z" fill="#FF5303"/>
<path d="M2577.73 313.342C2579.58 313.386 2581.59 313.498 2583.01 314.746C2584.66 316.218 2584.93 318.726 2585.85 320.777C2588.52 326.696 2595.87 327.9 2602.04 329.081C2608.2 330.263 2615.53 333.841 2615.46 340.373C2615.44 341.867 2615 343.405 2615.49 344.81C2615.8 345.713 2616.45 346.437 2617.14 347.073C2621.39 351.052 2627.11 352.758 2632.03 355.779C2636.94 358.8 2641.43 364.295 2640.24 370.114C2639.68 372.845 2637.94 375.219 2637.57 377.995C2637 382.387 2639.97 386.322 2642.76 389.666C2648 395.93 2653.23 402.195 2658.46 408.46C2660.53 410.946 2662.72 413.677 2662.97 416.965C2663.43 422.94 2657.52 427.388 2656.24 433.24C2654.67 440.407 2660.3 446.973 2661.83 454.152C2663.88 463.761 2657.13 474.417 2647.85 476.234C2645.69 476.658 2643.36 476.702 2641.58 478.029C2638.7 480.158 2638.58 484.449 2637.91 488.061C2636.45 495.853 2630.9 502.664 2623.76 505.406C2609.72 510.824 2594.78 500.791 2579.85 499.598C2570.76 498.863 2561.73 501.471 2552.62 501.917C2541.98 502.441 2531.22 499.966 2521.79 494.827C2520.74 494.259 2519.67 493.624 2518.92 492.654C2517.05 490.257 2517.75 486.768 2517.35 483.714C2516.18 474.618 2505.92 470.583 2497.29 468.732C2488.67 466.882 2478.39 463.95 2475.9 455.155C2474.59 450.495 2475.99 445.301 2474.42 440.731C2472.51 435.19 2480.94 417.094 2478.12 412C2474.2 404.933 2463.98 396.956 2467.5 389.666C2471.01 382.364 2474.16 389.153 2474.62 380.993C2474.92 375.609 2473.33 370.303 2472.94 364.919C2472.56 359.524 2473.79 353.404 2478.12 350.45C2483.4 346.861 2490.51 349.536 2496.66 348.087C2511.08 344.687 2514.58 321.067 2529.17 318.514C2532.03 318.012 2534.97 318.458 2537.87 318.603C2545.65 318.982 2551.52 316.217 2558.76 314.122C2564.89 312.338 2571.31 313.174 2577.73 313.342Z" fill="#383D46"/>
<path d="M2539.48 1381.85C2539.48 1381.85 2544.96 1440.76 2532.89 1447.35C2511.03 1459.25 2470.79 1470.47 2474.07 1480.88C2477.35 1491.29 2573.56 1492.48 2576.31 1483.03C2579.07 1473.59 2568.52 1444.52 2580.4 1388.2L2539.48 1381.85Z" fill="#F7A798"/>
<path d="M2575.52 1461.88C2576.47 1472.43 2577.29 1479.67 2576.31 1483.03C2573.56 1492.48 2477.35 1491.29 2474.07 1480.88C2471.64 1473.15 2492.96 1464.64 2513.19 1456.16C2517.89 1464.21 2527.96 1476.77 2575.52 1461.88Z" fill="#001332"/>
<path d="M2369.43 1381.85C2369.43 1381.85 2374.91 1440.76 2362.84 1447.35C2340.97 1459.25 2300.73 1470.47 2304.01 1480.88C2307.28 1491.29 2403.51 1492.48 2406.25 1483.03C2409 1473.59 2398.45 1444.52 2410.35 1388.2L2369.43 1381.85Z" fill="#F7A798"/>
<path d="M2405.47 1461.88C2406.4 1472.43 2407.23 1479.67 2406.25 1483.03C2403.51 1492.48 2307.28 1491.29 2304.01 1480.88C2301.57 1473.15 2322.89 1464.64 2343.13 1456.16C2347.84 1464.21 2357.89 1476.77 2405.47 1461.88Z" fill="#001332"/>
<path d="M2630.23 558.613C2630.23 558.613 2680.68 661.2 2696.65 743.6C2712.64 826.013 2711.8 861.32 2711.8 861.32L2687.41 865.533C2687.41 865.533 2656.29 736.88 2644.52 705.76C2632.76 674.653 2604.16 604.867 2604.16 604.867L2630.23 558.613Z" fill="#F7A798"/>
<path d="M2341.16 785.387C2341.16 785.387 2318.49 783.48 2310.15 784.6C2301.8 785.733 2292.88 780.627 2291.87 785.4C2290.85 790.173 2306.45 794.533 2306.45 794.533C2306.45 794.533 2292.39 804.293 2287.61 806.64C2282.83 808.987 2275.35 815.347 2276.79 818.973C2278.23 822.613 2300.4 809.747 2300.4 809.747C2300.4 809.747 2282.8 822.413 2283.41 826.053C2284.03 829.68 2308.8 816.853 2308.8 816.853C2308.8 816.853 2289.36 829.453 2288.69 831.773C2288.04 834.08 2290.97 835.027 2298.95 832.24C2306.91 829.453 2314.32 824.547 2314.32 824.547C2314.32 824.547 2301.32 834.427 2300.17 836.16C2299.04 837.88 2298.72 841.107 2310.08 835.72C2321.44 830.347 2344.11 814.72 2352.27 802.307L2341.16 785.387Z" fill="#F7A798"/>
<path d="M2688.15 862.187C2688.15 862.187 2681.84 884.04 2681.31 892.44C2680.79 900.853 2674.04 908.6 2678.52 910.52C2683 912.453 2690.32 898 2690.32 898C2690.32 898 2697.16 913.707 2698.52 918.853C2699.88 924 2704.67 932.587 2708.51 931.88C2712.35 931.173 2704.07 906.907 2704.07 906.907C2704.07 906.907 2713.05 926.653 2716.73 926.76C2720.41 926.867 2712.68 900.067 2712.68 900.067C2712.68 900.067 2721.24 921.6 2723.37 922.693C2725.52 923.8 2727.01 921.093 2725.84 912.747C2724.67 904.387 2721.31 896.16 2721.31 896.16C2721.31 896.16 2728.45 910.827 2729.92 912.293C2731.39 913.76 2734.48 914.693 2731.44 902.493C2728.39 890.307 2717.48 865.013 2706.91 854.587L2688.15 862.187Z" fill="#F7A798"/>
<path d="M2427.59 566.187C2427.59 566.187 2397.59 701.56 2386.95 723.427C2376.29 745.28 2339.6 784.693 2339.6 784.693L2351.83 803.307C2351.83 803.307 2443.56 746.974 2448.6 681.387C2453.65 615.787 2427.59 566.187 2427.59 566.187Z" fill="#F7A798"/>
<path d="M1800.48 1121.99C1800.48 1121.99 1778.72 1134.36 1771.85 1140.57C1764.99 1146.79 1753.72 1147.71 1755.77 1152.67C1757.83 1157.63 1774.68 1151.87 1774.68 1151.87C1774.68 1151.87 1768 1169.49 1765.12 1174.59C1762.24 1179.69 1759.41 1190.12 1762.99 1192.52C1766.55 1194.92 1778.67 1169.44 1778.67 1169.44C1778.67 1169.44 1770.57 1191.89 1773.39 1194.81C1776.21 1197.72 1790.71 1170.67 1790.71 1170.67C1790.71 1170.67 1780.91 1194.2 1781.75 1196.71C1782.59 1199.23 1785.84 1198.25 1791.33 1190.76C1796.83 1183.28 1800.51 1174.21 1800.51 1174.21C1800.51 1174.21 1794.85 1191.27 1794.89 1193.55C1794.93 1195.83 1796.64 1198.95 1803.6 1186.99C1810.57 1175.04 1821.4 1146.76 1821.08 1130.41L1800.48 1121.99Z" fill="#F7A798"/>
<path d="M1213.62 1308.27C1213.62 1308.27 1192.14 1321.11 1185.41 1327.48C1178.68 1333.84 1167.43 1335 1169.59 1339.92C1171.76 1344.84 1188.49 1338.71 1188.49 1338.71C1188.49 1338.71 1182.19 1356.47 1179.43 1361.64C1176.66 1366.8 1174.07 1377.28 1177.69 1379.6C1181.31 1381.92 1192.85 1356.19 1192.85 1356.19C1192.85 1356.19 1185.26 1378.81 1188.14 1381.67C1191.03 1384.52 1204.92 1357.15 1204.92 1357.15C1204.92 1357.15 1195.64 1380.88 1196.54 1383.39C1197.43 1385.88 1200.66 1384.83 1205.99 1377.23C1211.32 1369.61 1214.79 1360.48 1214.79 1360.48C1214.79 1360.48 1209.52 1377.64 1209.61 1379.92C1209.69 1382.2 1211.48 1385.28 1218.18 1373.19C1224.87 1361.08 1235.08 1332.56 1234.4 1316.24L1213.62 1308.27Z" fill="#F7A798"/>
<path d="M609.367 1793.77C609.367 1793.77 607.157 1816.4 604.545 1824.4C601.933 1832.39 605.341 1842.08 600.467 1842.21C595.591 1842.35 594.124 1826.23 594.124 1826.23C594.124 1826.23 581.984 1838.29 578.817 1842.57C575.651 1846.85 568.045 1853.05 564.736 1850.97C561.427 1848.91 578.076 1829.43 578.076 1829.43C578.076 1829.43 562.447 1844.45 558.985 1843.19C555.524 1841.93 572.6 1819.89 572.6 1819.89C572.6 1819.89 556.713 1836.73 554.315 1836.96C551.919 1837.2 551.525 1834.13 555.701 1826.81C559.88 1819.48 566.033 1813.08 566.033 1813.08C566.033 1813.08 553.984 1824.07 552.08 1824.89C550.173 1825.71 546.953 1825.43 554.289 1815.24C561.624 1805.04 581.081 1785.57 594.751 1779.8L609.367 1793.77Z" fill="#F7A798"/>
<path d="M1118.36 1423.56C1118.36 1423.56 1128.11 1397.64 1132.33 1390.36C1136.55 1383.08 1135.23 1372.89 1140.03 1373.79C1144.83 1374.67 1142.91 1390.73 1142.91 1390.73C1142.91 1390.73 1157.29 1381.47 1161.28 1377.93C1165.27 1374.41 1174 1369.93 1176.8 1372.64C1179.61 1375.36 1159.27 1390.95 1159.27 1390.95C1159.27 1390.95 1177.68 1379.51 1180.81 1381.47C1183.93 1383.41 1162.64 1401.41 1162.64 1401.41C1162.64 1401.41 1181.68 1388.25 1184.08 1388.52C1186.47 1388.8 1186.22 1391.87 1180.61 1398.17C1175 1404.47 1167.64 1409.44 1167.64 1409.44C1167.64 1409.44 1181.72 1401.2 1183.75 1400.8C1185.78 1400.4 1188.88 1401.33 1179.58 1409.79C1170.28 1418.23 1147.2 1433.21 1132.63 1436.01L1118.36 1423.56Z" fill="#F7A798"/>
<path d="M1731.85 1154.57C1731.85 1154.57 1736.09 1179.24 1739.6 1187.81C1743.11 1196.37 1740.13 1207.29 1745.51 1207.04C1750.87 1206.8 1751.19 1188.99 1751.19 1188.99C1751.19 1188.99 1765.48 1201.27 1769.31 1205.71C1773.12 1210.15 1781.97 1216.35 1785.44 1213.81C1788.91 1211.27 1769.07 1191.21 1769.07 1191.21C1769.07 1191.21 1787.43 1206.47 1791.13 1204.8C1794.83 1203.13 1774.32 1180.31 1774.32 1180.31C1774.32 1180.31 1793.11 1197.53 1795.76 1197.59C1798.41 1197.65 1798.6 1194.27 1793.43 1186.55C1788.25 1178.84 1780.97 1172.31 1780.97 1172.31C1780.97 1172.31 1795.09 1183.41 1797.24 1184.15C1799.4 1184.89 1802.92 1184.35 1794.05 1173.73C1785.17 1163.12 1762.25 1143.31 1746.79 1138.05L1731.85 1154.57Z" fill="#F7A798"/>
<path d="M2289.68 857.494C2289.68 857.494 2293.47 832.76 2296.83 824.134C2300.17 815.494 2297.01 804.64 2302.37 804.787C2307.75 804.934 2308.39 822.734 2308.39 822.734C2308.39 822.734 2322.45 810.2 2326.19 805.694C2329.93 801.174 2338.67 794.814 2342.17 797.294C2345.69 799.774 2326.23 820.173 2326.23 820.173C2326.23 820.173 2344.31 804.6 2348.03 806.2C2351.76 807.787 2331.67 830.987 2331.67 830.987C2331.67 830.987 2350.15 813.44 2352.79 813.32C2355.44 813.214 2355.69 816.6 2350.65 824.4C2345.63 832.2 2338.48 838.88 2338.48 838.88C2338.48 838.88 2352.39 827.507 2354.52 826.734C2356.67 825.947 2360.19 826.44 2351.52 837.213C2342.84 847.987 2320.29 868.2 2304.92 873.734L2289.68 857.494Z" fill="#F7A798"/>
<path d="M1365.71 2183.25H750.053V2464.85H1365.71V2183.25Z" fill="#383D46"/>
<path d="M1779.41 1909.89H1163.76V2464.85H1779.41V1909.89Z" fill="#383D46"/>
<path d="M2378.11 1684.53H1644.73V2464.85H2378.11V1684.53Z" fill="#383D46"/>
<path d="M1359.64 1859.48L1347.12 1794.84L1395.43 1788.51L1397.28 1862.21C1397.28 1862.21 1369.17 1868.61 1359.64 1859.48Z" fill="#F7A798"/>
<path d="M1397.21 1857.08C1397.21 1857.08 1382.72 1863.52 1359.64 1859.48C1359.64 1859.48 1293.79 1886.19 1295.54 1905.97C1295.54 1905.97 1292.49 1911.81 1322.53 1911.08C1352.57 1910.36 1399.25 1909.88 1400.52 1909.21C1401.79 1908.55 1413.35 1901 1397.21 1857.08Z" fill="#001332"/>
<path d="M1556.72 1842.6L1529.44 1782.69L1574.95 1765.23L1593.97 1836.47C1593.97 1836.47 1568.12 1849.25 1556.72 1842.6Z" fill="#F7A798"/>
<path d="M1592.71 1831.49C1592.71 1831.49 1580.11 1841.15 1556.72 1842.6C1556.72 1842.6 1498.93 1883.96 1505.27 1902.79C1505.27 1902.79 1503.65 1909.17 1532.69 1901.45C1561.75 1893.73 1607.03 1882.36 1608.09 1881.41C1609.16 1880.47 1618.64 1870.43 1592.71 1831.49Z" fill="#001332"/>
<path d="M2641.31 1489.45H2025.64V2464.85H2641.31V1489.45Z" fill="#383D46"/>
<path d="M2238.83 1489.45H2025.64V1684.53H2238.83V1489.45Z" fill="#292E42"/>
<path d="M1857.91 1684.53H1644.73V1909.89H1857.91V1684.53Z" fill="#292E42"/>
<path d="M1376.93 1911.15H1163.76V2183.25H1376.93V1911.15Z" fill="#292E42"/>
<path d="M965.867 2182.67H750.053V2464.85H965.867V2182.67Z" fill="#292E42"/>
<path d="M1404.25 1349.87C1404.25 1349.87 1340.35 1514.68 1335.29 1590.36C1330.25 1666.04 1342.03 1831.4 1342.03 1831.4H1410.41C1410.41 1831.4 1405.93 1637.44 1417.71 1582.79C1429.48 1528.13 1488.33 1435.64 1491.69 1435.64C1495.07 1435.64 1463.67 1687.89 1525.89 1825.8C1525.89 1825.8 1597.65 1810.67 1594.28 1805.61C1590.92 1800.57 1562.33 1684.53 1574.11 1592.04C1585.88 1499.55 1621.19 1333.05 1617.83 1321.28C1614.47 1309.51 1404.25 1349.87 1404.25 1349.87Z" fill="#A22001"/>
<path d="M1421.01 997.893C1421.01 997.893 1496.75 968.12 1552.24 981.573C1607.73 995.027 1725.45 1084.16 1765.83 1132.92L1728.83 1170.84C1728.83 1170.84 1619.51 1084.16 1586.72 1094.24C1586.72 1094.24 1632.96 1267.47 1639.69 1338.09C1639.69 1338.09 1505.15 1380.15 1395.84 1356.6C1395.84 1356.6 1394.16 1171.75 1384.07 1170.84C1373.97 1169.92 1339.23 1268.59 1243.36 1342.59L1201.88 1303.35C1201.88 1303.35 1299.98 1198.51 1321.84 1132.92C1343.71 1067.33 1356.28 1013.52 1421.01 997.893Z" fill="#E8EDF0"/>
<path d="M988.86 2070.77C988.86 2070.77 961.357 2133.87 973.18 2140.88C994.595 2153.59 1034.4 2166.25 1030.74 2176.53C1027.09 2186.83 930.891 2184.51 928.489 2174.96C926.087 2165.41 949.352 2131.97 939.528 2075.25L988.86 2070.77Z" fill="#F7A798"/>
<path d="M934.101 2152.28C928.393 2165.51 927.635 2171.56 928.489 2174.96C930.891 2184.51 1027.09 2186.83 1030.74 2176.53C1033.45 2168.91 1012.46 2159.63 992.547 2150.41C987.553 2158.28 981.089 2168.91 934.101 2152.28Z" fill="#001332"/>
<path d="M583.037 2186.51C583.037 2186.51 526.395 2203.61 524.847 2217.27C522.043 2242.01 526.815 2283.51 515.935 2284.4C505.055 2285.28 467.719 2196.6 475.436 2190.49C483.153 2184.39 514.051 2183.21 561.741 2150.99L583.037 2186.51Z" fill="#F7A798"/>
<path d="M495.327 2183.25C485.201 2186.36 478.185 2188.32 475.436 2190.49C467.719 2196.6 505.055 2285.28 515.935 2284.4C524.004 2283.73 523.859 2260.79 524.096 2238.84C514.869 2237.52 499.44 2232.92 495.327 2183.25Z" fill="#001332"/>
<path d="M1343.03 919.733L1343.08 919.72C1342.75 919.094 1342.41 918.467 1342.11 917.827C1328.37 889.493 1341.24 855.16 1370.89 843.12C1395.6 833.094 1424.43 842.653 1438.23 865.467C1443.35 873.947 1445.88 883.12 1446.16 892.187C1447.19 905.934 1447.95 917.747 1447.67 928.013C1447.2 944.987 1458.12 970.387 1467.97 984.213C1445.03 1025.03 1421.01 997.893 1421.01 997.893L1415.44 987.36C1413.99 984.56 1410.64 983.36 1407.72 984.547C1407.69 984.56 1407.68 984.56 1407.67 984.573C1368.91 1000.33 1351.23 936.653 1343.03 919.733Z" fill="#F7A798"/>
<path d="M1451.5 863L1460.5 908L1439.72 913.68L1413.49 873.267L1451.5 863Z" fill="#202245"/>
<path d="M1437.81 913.293C1437.84 911.32 1438.64 909.427 1439.97 907.96C1442.71 904.933 1447.99 900.533 1454.12 902.653C1463.11 905.773 1458.71 927.733 1442.8 925.587C1442.8 925.587 1437.69 923.813 1437.81 913.293Z" fill="#F7A798"/>
<path d="M866.554 1473.14C921.558 1465.98 906.521 1380.28 851.781 1387.42C803.742 1393.69 781.239 1433.33 770.357 1476.86C768.873 1480.87 767.389 1488.37 766.4 1494.22C764.817 1512.25 741.147 1510.25 727.324 1513.89C698.279 1521.55 717.135 1546.11 688.248 1554.42C661.854 1562.01 686.672 1580.62 650.656 1596.95C622.369 1603.64 615.042 1603.46 614.052 1617.47C613.417 1626.48 618.549 1644.99 629.881 1659C643.236 1675.51 656.921 1676.7 664.321 1670.31C680.545 1674.96 695.001 1686.83 709.247 1696.79C734.796 1714.7 761.981 1730.93 793.242 1735.65C855.764 1745.08 914.857 1704.17 933.719 1644.37C941.277 1620.4 929.05 1601.28 911.797 1592.32C910.095 1588.28 907.905 1584.48 905.175 1581.18C906.257 1579.92 907.259 1578.61 908.156 1577.17C909.818 1573.86 911.48 1570.56 913.155 1567.25C915.675 1560.05 916.308 1552.67 915.042 1545.12C914.765 1539.95 914.487 1534.79 914.21 1529.61C913.406 1523.61 911.19 1518.27 907.576 1513.61C904.898 1508.49 901.086 1504.34 896.153 1501.19C891.549 1497.77 886.498 1495.69 880.971 1494.94C875.589 1493.26 870.089 1493.02 864.457 1494.22C863.731 1494.38 863.019 1494.6 862.294 1494.8C862.676 1489.42 863.349 1483.9 864.391 1478.89C864.998 1476.92 865.565 1474.92 866.053 1472.9C868.44 1469.74 868.625 1469.8 866.554 1473.14Z" fill="#A34A54"/>
<path d="M898.326 1538L854 1533.45L869.862 1439L913 1445.99L898.326 1538Z" fill="#F7A798"/>
<path d="M886.316 1513C922.227 1505.18 922.889 1508.91 917.585 1447.47L917.571 1445.54C914.543 1410.24 884.319 1382.26 859.492 1387.67C834.665 1393.09 820.565 1425.54 827.972 1460.14C831.795 1477.98 840.591 1492.93 851.622 1502.47" fill="#F7A798"/>
<path d="M916 1446C922.564 1461.93 925.952 1451.88 926.92 1462.94C927.763 1472.56 921.744 1467.57 918.878 1476.15C918.698 1476.68 918.465 1478.79 918.194 1479" fill="#F7A798"/>
<path d="M836.707 1513.71C836.378 1513.28 836.181 1512.72 836.273 1512C837.009 1505.91 834.237 1500.09 832.319 1494.45C830.348 1488.7 828.456 1482.93 826.643 1477.12C822.755 1464.77 819.247 1452.29 816.081 1439.73C815.857 1438.82 816.12 1438.13 816.593 1437.63C816.186 1430.47 816.015 1423.08 818.945 1416.4C822.045 1409.36 827.799 1403.87 833.146 1398.58C838.848 1392.92 845.049 1388.12 852.905 1386.1C860.118 1384.24 867.711 1384.85 874.779 1387.08C875.042 1387.18 875.226 1387.32 875.436 1387.46C876.12 1387.16 876.763 1386.78 877.486 1386.55C884.409 1384.29 891.543 1385.64 897.718 1389.34C904.457 1393.38 909.226 1399.85 913.167 1406.55C914.888 1409.53 917.976 1413.46 918.291 1417C918.409 1418.23 918.094 1419.2 917.542 1420C919.907 1420.28 921.168 1423.83 918.515 1424.73C908.477 1428.18 898.427 1431.6 888.377 1435.04L872.73 1440.39C869.498 1441.5 891.976 1467.92 853.786 1533.9C853.786 1533.9 848.846 1544.92 840.937 1516.46C840.083 1513.36 834.999 1516.3 836.707 1513.71Z" fill="#A34A54"/>
<path d="M1341.67 896.747C1341.67 896.747 1337 905.147 1349.76 935.92C1349.76 935.92 1331.19 903.734 1333.12 898.254C1335.04 892.787 1341.67 896.747 1341.67 896.747Z" fill="#202245"/>
<path d="M1450.91 858.651C1447.25 851.309 1441.02 845.467 1434.54 840.242C1438.47 839.411 1442.78 838.286 1445 835.044C1447.19 831.788 1445 826.08 1441 826.616C1438.69 826.924 1437.15 829.055 1435.06 830.1C1430.31 832.458 1424.8 828.586 1421.5 824.54C1418.21 820.493 1414.81 815.55 1409.49 815.041C1407.82 814.88 1406.11 815.201 1404.62 815.938C1405.53 821.927 1408.59 827.594 1413.15 831.748C1404.57 826.75 1394.94 823.454 1385.01 822.101C1377.28 821.043 1368.75 821.378 1362.61 826.013C1363.16 831.975 1373.53 831.332 1376.78 836.437C1363.16 837.723 1349.76 841.032 1337.2 846.204C1333.95 847.544 1330.69 849.044 1328.23 851.483C1325.77 853.908 1324.23 857.445 1325.11 860.741C1326.27 865.055 1331.95 867.6 1336.12 865.698C1330.83 870.736 1325.47 875.853 1321.69 882.03C1317.92 888.206 1315.85 895.682 1317.67 902.636C1322.37 901.068 1326.64 898.322 1329.93 894.731C1328.05 898.228 1327.04 902.89 1329.76 905.838C1331.78 908.008 1335.26 908.424 1338.18 907.62C1341.09 906.816 1343.57 904.994 1345.98 903.225C1358.11 894.249 1370.25 885.286 1382.38 876.309C1379.09 883.745 1377.76 891.971 1378.58 900.01C1390.53 894.316 1400.64 885.165 1407.29 874.058C1410.55 879.31 1414.59 884.133 1419.22 888.314C1419.95 888.97 1420.75 889.64 1421.74 889.787C1425.05 890.283 1425.82 885.554 1427.61 882.82C1429.83 879.484 1434.68 878.948 1438.75 879.565C1445.75 880.637 1451.47 883.731 1453.47 875.519C1454.83 869.985 1453.41 863.675 1450.91 858.651Z" fill="#202245"/>
<path d="M889.549 1797.64C889.549 1797.64 1028.91 1863.4 1030.9 1905.27C1032.9 1947.13 995.587 2128.51 995.587 2128.51L919.552 2115.88C919.552 2115.88 946.961 1954.99 935 1930.07C923.039 1905.15 829.744 1893.87 820.772 1897.09C811.801 1900.31 763.315 2032.07 728.869 2081.97C690.595 2137.41 556.625 2213.29 556.625 2213.29L528.716 2155.49C528.716 2155.49 650.323 2087.71 662.284 2035.88C674.245 1984.04 713.12 1849.48 742.027 1783.69L889.549 1797.64Z" fill="#001332"/>
<path d="M832.919 1686.24C822.207 1686.24 809.892 1683.25 797.033 1674.28C796.504 1673.91 796.375 1673.19 796.745 1672.65C797.116 1672.12 797.844 1672 798.37 1672.36C835.365 1698.17 867.605 1672.68 867.927 1672.41C868.42 1672.01 869.159 1672.08 869.569 1672.59C869.976 1673.09 869.899 1673.83 869.396 1674.23C869.175 1674.41 854.219 1686.24 832.919 1686.24Z" fill="#7C9AF2"/>
<path d="M2213.81 1400.31C2213.81 1400.31 2213.09 1450.44 2213.48 1451.16C2213.87 1451.88 2209.83 1458.16 2209.83 1458.16L2194.01 1460.99L2179.57 1454.35C2179.57 1454.35 2180.85 1407.75 2179.33 1400.39C2177.83 1393.04 2213.81 1400.31 2213.81 1400.31Z" fill="#F7A798"/>
<path d="M2179.57 1454.35C2179.57 1454.35 2197.8 1460.73 2213.39 1450.17C2213.39 1450.17 2274.08 1472.92 2272.23 1490.23C2272.23 1490.23 2274.81 1495.37 2248.51 1494.27C2222.21 1493.15 2181.35 1491.99 2180.25 1491.37C2179.16 1490.77 2174 1493.55 2179.57 1454.35Z" fill="#001332"/>
<path d="M1907.76 1577.8C1907.76 1577.8 1888.37 1624.04 1888.47 1624.85C1888.56 1625.67 1882.47 1629.97 1882.47 1629.97L1866.73 1626.69L1855.83 1615.16C1855.83 1615.16 1874.4 1572.39 1875.73 1565C1877.08 1557.61 1907.76 1577.8 1907.76 1577.8Z" fill="#F7A798"/>
<path d="M1855.83 1615.16C1855.83 1615.16 1870.35 1627.87 1888.75 1623.89C1888.75 1623.89 1936.56 1667.65 1928.39 1683.01C1928.39 1683.01 1928.87 1688.76 1904.88 1677.91C1880.89 1667.07 1843.41 1650.72 1842.63 1649.76C1841.84 1648.79 1836.03 1649.44 1855.83 1615.16Z" fill="#001332"/>
<path d="M2110.15 1131.08C2110.15 1131.08 2265.57 1154.79 2272.29 1222.05C2279.03 1289.32 2224.93 1432.28 2224.93 1432.28H2166.07C2166.07 1432.28 2187.71 1265.79 2179.29 1254.01C2170.88 1242.24 2061.8 1254.01 2041.63 1267.47C2021.44 1280.92 1981.08 1541.59 1917.17 1608.85L1854.95 1588.68C1854.95 1588.68 1903.72 1445.73 1900.36 1391.91C1897 1338.09 1907.08 1176.23 1907.08 1176.23L2110.15 1131.08Z" fill="#03284B"/>
<path d="M1779.41 1121.72L1829.73 1138.05L1912.69 1006.73L1883.55 1197.95C1883.55 1197.95 2076.95 1171.44 2119.55 1131.08L2134.68 978.08C2134.68 978.08 2278.19 1017.77 2318.55 871.293L2282.67 848.147C2282.67 848.147 2242.31 913.427 2195.23 904.333C2148.13 895.24 2135.8 827.16 2106.65 822.68C2077.51 818.2 1958.65 818.96 1925.03 839.16C1891.39 859.36 1852.43 944.573 1779.41 1121.72Z" fill="#383D46"/>
<path d="M2072.41 699.507L2072.36 699.533C2072.32 698.827 2072.29 698.12 2072.23 697.4C2069.36 665.947 2040.52 643.107 2008.81 648.12C1982.4 652.294 1962.57 675.427 1962.53 702.173C1962.52 712.093 1965.09 721.293 1969.55 729.24C1975.77 741.573 1981.24 752.12 1986.79 760.8C1995.99 775.147 2000.03 792.174 1998.73 809.16L1997.71 822.52C2032.96 837.36 2046.79 819.307 2046.79 819.307L2045.2 795.107C2045 791.947 2047.25 789.187 2050.39 788.694C2050.4 788.694 2050.43 788.694 2050.44 788.694C2091.89 782.16 2074.13 718.307 2072.41 699.507Z" fill="#F7A798"/>
<path d="M1111.5 1415.21L1150.37 1437.15C1150.37 1437.15 1078.94 1601.28 953.344 1615.23C953.344 1615.23 965.305 1665.07 953.344 1681.03C941.381 1696.97 926.763 1699.63 926.763 1699.63C926.763 1699.63 890.072 1767.84 898.045 1799.73C898.045 1799.73 801.833 1827.21 734.052 1795.32C734.052 1795.32 760.633 1655.77 771.265 1637.16C771.265 1637.16 645.007 1736.84 619.755 1804.63L574.568 1784.68C574.568 1784.68 695.179 1572.71 786.881 1547.45C878.585 1522.2 917.46 1536.16 940.053 1532.17C962.647 1528.19 1034.41 1542.13 1111.5 1415.21Z" fill="#FAFAFC"/>
<path d="M855.022 1531.28C854.277 1540.53 872.684 1573.9 885.169 1574.97C897.667 1576.03 897.555 1547.85 898.287 1538.6C898.392 1537.45 899.183 1529.04 898.961 1528" fill="#F7A798"/>
<path d="M1949.5 705.5L1967.5 750L1986.2 744.373L1987.81 696.067L1949.5 705.5Z" fill="#202245"/>
<path d="M1987.64 743.053C1986.59 741.36 1984.92 740.16 1983.03 739.587C1979.11 738.4 1972.28 737.347 1968.12 742.347C1962.01 749.68 1977.16 766.267 1989.72 756.187C1989.72 756.187 1993.19 752.027 1987.64 743.053Z" fill="#F7A798"/>
<path d="M2061.68 679.067C2061.68 679.067 2070.05 683.867 2075 716.907C2075 716.907 2074.31 679.64 2069.81 675.933C2065.32 672.24 2061.68 679.067 2061.68 679.067Z" fill="#202245"/>
<path d="M1972.48 642.907C1983.4 630.667 2009.5 623.5 2018.5 627.5C2031.42 633.244 2040.5 638 2040.5 638L2051.5 642L2063 644C2063 644 2068 644 2083.24 643.293C2084.73 645.6 2083.73 648.64 2082.71 651.187C2077.08 665.133 2070.13 680.44 2056.19 686.093C2051.87 687.84 2047.17 688.48 2042.51 688.733C2024.07 689.733 2003.69 685.213 1988.44 695.64C1981.37 700.467 1965.07 713.927 1955 711.5C1946.04 709.353 1938.6 680.867 1972.48 642.907Z" fill="#202245"/>
<path d="M2610.05 772.854C2610.05 772.854 2650.41 864.28 2654.89 915.64C2659.39 967 2589.87 1413.21 2589.87 1413.21H2527.08V969.68L2415.4 1413.21H2357.08C2357.08 1413.21 2408.24 906.773 2464.29 796.733L2610.05 772.854Z" fill="#DBF3F3"/>
<path d="M2460.41 805.027L2616.29 787.613C2616.29 787.613 2608.93 748.6 2608.93 738.96C2608.93 729.307 2607.81 640.733 2607.81 640.733L2623.51 668.347L2676.2 634.013C2676.2 634.013 2621.27 524.133 2611.17 518.533C2601.08 512.92 2533.81 501.72 2533.81 501.72L2473.27 519.653C2473.27 519.653 2426.17 539.84 2413.85 572.347C2401.52 604.867 2386.95 658.68 2386.95 658.68L2410.41 665.893C2415.67 667.507 2421.13 668.307 2426.63 668.293L2443.56 668.213C2443.56 668.213 2450.8 690.107 2460.89 692.867L2460.41 805.027Z" fill="#001332"/>
<path d="M2490.67 507L2535 502.447L2519.14 408L2476 414.989L2490.67 507Z" fill="#F7A798"/>
<path d="M2502.68 482C2466.77 474.176 2466.11 477.914 2471.42 416.472L2471.43 414.536C2474.46 379.235 2504.68 351.264 2529.51 356.672C2554.33 362.092 2568.43 394.536 2561.03 429.142C2557.21 446.98 2548.41 461.933 2537.38 471.466" fill="#F7A798"/>
<path d="M2576.91 456.924C2577.31 456.539 2577.55 456.035 2577.44 455.386C2576.55 449.896 2579.91 444.659 2582.23 439.577C2584.62 434.4 2586.91 429.198 2589.11 423.973C2593.82 412.849 2598.07 401.605 2601.9 390.289C2602.17 389.472 2601.85 388.848 2601.28 388.403C2601.77 381.952 2601.98 375.297 2598.43 369.279C2594.68 362.936 2587.7 357.999 2581.23 353.23C2574.32 348.137 2566.81 343.812 2557.29 341.986C2548.55 340.317 2539.35 340.869 2530.79 342.875C2530.47 342.959 2530.25 343.091 2529.99 343.212C2529.16 342.947 2528.38 342.599 2527.51 342.395C2519.12 340.365 2510.48 341.578 2503 344.905C2494.83 348.545 2489.05 354.371 2484.28 360.414C2482.19 363.093 2478.45 366.636 2478.07 369.82C2477.93 370.925 2478.31 371.802 2478.98 372.522C2476.11 372.775 2474.58 375.97 2477.8 376.787C2489.96 379.886 2486.82 369.423 2499 372.522L2533.27 390.89C2537.18 391.887 2509.95 415.684 2556.22 475.111C2556.22 475.111 2562.21 485.033 2571.79 459.398C2572.82 456.611 2578.98 459.254 2576.91 456.924Z" fill="#383D46"/>
<path d="M2473 415C2466.44 430.931 2463.05 420.882 2462.08 431.935C2461.24 441.56 2467.26 436.571 2470.12 445.146C2470.3 445.682 2470.53 447.786 2470.81 448" fill="#F7A798"/>
<path d="M2533.98 500.279C2534.72 509.526 2516.32 542.9 2503.83 543.971C2491.33 545.028 2491.44 516.846 2490.71 507.599C2490.61 506.448 2489.82 498.044 2490.04 497" fill="#F7A798"/>
<path d="M2540.21 659.493C2532.97 659.493 2525.43 658.12 2518.21 654.413C2517.64 654.107 2517.43 653.413 2517.71 652.84C2518.01 652.267 2518.72 652.027 2519.28 652.333C2545.64 665.907 2577.16 646.64 2577.48 646.44C2578.03 646.08 2578.75 646.267 2579.08 646.813C2579.43 647.36 2579.25 648.08 2578.71 648.413C2578.47 648.573 2560.61 659.493 2540.21 659.493Z" fill="#8C99D2"/>
<path d="M786.731 2479.71C786.803 2479.71 786.875 2479.69 786.947 2479.68C787.531 2479.53 787.891 2478.96 787.753 2478.37C751.844 2326.05 717.324 2217.95 690.553 2174C689.959 2173.01 689.528 2172.32 689.371 2171.96C689.124 2171.41 688.481 2171.17 687.936 2171.41C687.389 2171.67 687.145 2172.31 687.392 2172.85C687.605 2173.33 688.017 2174 688.7 2175.12C715.356 2218.89 749.784 2326.76 785.643 2478.87C785.763 2479.39 786.225 2479.72 786.731 2479.71Z" fill="#DBF3F3"/>
<path d="M670.567 2165.07C673.753 2170 690.712 2179.76 692.124 2178.84C693.535 2177.93 691.659 2158.47 688.472 2153.52C685.285 2148.57 678.693 2147.15 673.749 2150.33C668.805 2153.52 667.38 2160.12 670.567 2165.07Z" fill="#DBF3F3"/>
<path d="M703.456 2181.51C701.379 2187.15 703.859 2207 705.471 2207.6C707.083 2208.19 721.833 2194.67 723.911 2189.03C725.987 2183.37 723.092 2177.11 717.444 2175.03C711.796 2172.96 705.532 2175.85 703.456 2181.51Z" fill="#DBF3F3"/>
<path d="M680.528 2214.57C686.499 2215.33 705.288 2208.44 705.503 2206.73C705.717 2205.03 689.22 2193.71 683.249 2192.95C677.277 2192.2 671.828 2196.43 671.077 2202.4C670.325 2208.37 674.556 2213.83 680.528 2214.57Z" fill="#DBF3F3"/>
<path d="M748.813 2283.76C744.325 2292.81 744.869 2326.4 747.453 2327.68C750.036 2328.96 777.099 2309.07 781.587 2300.01C786.075 2290.96 782.376 2279.99 773.325 2275.51C764.276 2271.01 753.301 2274.72 748.813 2283.76Z" fill="#DBF3F3"/>
<path d="M704.568 2334.81C714.396 2337.15 746.997 2329.05 747.664 2326.25C748.329 2323.44 722.849 2301.56 713.021 2299.23C703.193 2296.89 693.333 2302.96 690.999 2312.79C688.665 2322.61 694.74 2332.48 704.568 2334.81Z" fill="#DBF3F3"/>
<path d="M772.759 2322.76C764.965 2332.36 756.567 2372.6 759.305 2374.83C762.043 2377.05 799.709 2360.59 807.504 2350.99C815.299 2341.4 813.839 2327.29 804.245 2319.51C794.649 2311.71 780.553 2313.17 772.759 2322.76Z" fill="#DBF3F3"/>
<path d="M709.877 2389.28C722.135 2390.88 760.8 2376.92 761.257 2373.43C761.715 2369.92 727.943 2346.49 715.687 2344.89C703.429 2343.28 692.193 2351.92 690.589 2364.17C688.984 2376.44 697.621 2387.67 709.877 2389.28Z" fill="#DBF3F3"/>
<path d="M786.025 2372.53C778.231 2382.12 769.833 2422.36 772.572 2424.59C775.309 2426.81 812.976 2410.35 820.769 2400.76C828.564 2391.16 827.105 2377.07 817.511 2369.27C807.916 2361.48 793.819 2362.93 786.025 2372.53Z" fill="#DBF3F3"/>
<path d="M723.144 2439.04C735.401 2440.64 774.065 2426.69 774.524 2423.19C774.981 2419.69 741.209 2396.25 728.953 2394.65C716.695 2393.05 705.459 2401.68 703.856 2413.95C702.251 2426.2 710.887 2437.44 723.144 2439.04Z" fill="#DBF3F3"/>
<path d="M817.877 2435.99C807.016 2441.89 783.924 2475.89 785.609 2479C787.293 2482.09 828.389 2481.23 839.251 2475.32C850.112 2469.41 854.133 2455.83 848.231 2444.96C842.328 2434.11 828.739 2430.08 817.877 2435.99Z" fill="#DBF3F3"/>
<path d="M734.569 2488.16C746.531 2491.28 786.636 2482.27 787.528 2478.85C788.42 2475.44 757.841 2447.97 745.881 2444.85C733.92 2441.72 721.693 2448.89 718.569 2460.85C715.445 2472.81 722.609 2485.04 734.569 2488.16Z" fill="#DBF3F3"/>
<path d="M717.428 2213.33C715.317 2219.07 717.836 2239.25 719.475 2239.85C721.112 2240.45 736.1 2226.71 738.209 2220.97C740.32 2215.24 737.379 2208.87 731.639 2206.76C725.9 2204.65 719.537 2207.6 717.428 2213.33Z" fill="#DBF3F3"/>
<path d="M694.9 2247.36C700.967 2248.12 720.056 2241.12 720.275 2239.39C720.492 2237.67 703.731 2226.15 697.664 2225.39C691.597 2224.63 686.06 2228.92 685.297 2234.99C684.533 2241.05 688.833 2246.6 694.9 2247.36Z" fill="#DBF3F3"/>
<path d="M733.775 2243.09C730.117 2250.97 731.332 2279.84 733.581 2280.88C735.831 2281.93 758.653 2264.21 762.309 2256.33C765.967 2248.45 762.541 2239.11 754.663 2235.45C746.783 2231.8 737.431 2235.21 733.775 2243.09Z" fill="#DBF3F3"/>
<path d="M697.842 2291.24C706.461 2292.32 733.584 2282.39 733.893 2279.92C734.203 2277.45 710.389 2261.11 701.77 2260.03C693.152 2258.93 685.285 2265.05 684.2 2273.67C683.116 2282.28 689.224 2290.15 697.842 2291.24Z" fill="#DBF3F3"/>
<path d="M668.276 2482.03C668.327 2482.03 668.379 2482.01 668.429 2482C668.847 2481.91 669.105 2481.49 669.007 2481.07C643.36 2372.28 618.705 2295.08 599.584 2263.68C599.16 2262.99 598.853 2262.48 598.74 2262.23C598.564 2261.84 598.105 2261.67 597.716 2261.84C597.325 2262.01 597.151 2262.48 597.327 2262.87C597.479 2263.2 597.775 2263.69 598.261 2264.49C617.299 2295.75 641.888 2372.79 667.499 2481.43C667.585 2481.79 667.915 2482.04 668.276 2482.03Z" fill="#292E42"/>
<path d="M585.311 2257.31C587.587 2260.84 599.697 2267.8 600.707 2267.15C601.715 2266.49 600.375 2252.59 598.099 2249.05C595.821 2245.53 591.115 2244.51 587.584 2246.79C584.052 2249.07 583.033 2253.77 585.311 2257.31Z" fill="#292E42"/>
<path d="M608.8 2269.04C607.317 2273.08 609.086 2287.25 610.238 2287.68C611.389 2288.11 621.925 2278.45 623.409 2274.41C624.892 2270.37 622.824 2265.91 618.791 2264.43C614.756 2262.95 610.282 2265.01 608.8 2269.04Z" fill="#292E42"/>
<path d="M592.424 2292.67C596.689 2293.2 610.108 2288.28 610.261 2287.07C610.416 2285.85 598.632 2277.76 594.367 2277.23C590.103 2276.68 586.211 2279.71 585.675 2283.97C585.139 2288.24 588.16 2292.13 592.424 2292.67Z" fill="#292E42"/>
<path d="M641.196 2342.08C637.989 2348.55 638.379 2372.53 640.223 2373.45C642.068 2374.36 661.397 2360.15 664.601 2353.69C667.807 2347.23 665.165 2339.39 658.701 2336.19C652.239 2332.97 644.4 2335.61 641.196 2342.08Z" fill="#292E42"/>
<path d="M609.593 2378.55C616.613 2380.21 639.897 2374.43 640.373 2372.43C640.849 2370.43 622.651 2354.79 615.632 2353.12C608.612 2351.45 601.571 2355.79 599.903 2362.81C598.236 2369.83 602.575 2376.87 609.593 2378.55Z" fill="#292E42"/>
<path d="M658.297 2369.93C652.731 2376.79 646.732 2405.52 648.688 2407.12C650.644 2408.71 677.545 2396.95 683.112 2390.09C688.679 2383.24 687.637 2373.17 680.784 2367.61C673.932 2362.04 663.864 2363.08 658.297 2369.93Z" fill="#292E42"/>
<path d="M613.387 2417.44C622.14 2418.59 649.755 2408.61 650.083 2406.12C650.411 2403.61 626.289 2386.88 617.535 2385.73C608.781 2384.59 600.755 2390.76 599.609 2399.51C598.465 2408.27 604.632 2416.29 613.387 2417.44Z" fill="#292E42"/>
<path d="M667.772 2405.48C662.205 2412.33 656.207 2441.07 658.163 2442.65C660.119 2444.25 687.021 2432.49 692.587 2425.64C698.153 2418.79 697.112 2408.72 690.259 2403.15C683.407 2397.59 673.339 2398.63 667.772 2405.48Z" fill="#292E42"/>
<path d="M622.861 2452.99C631.616 2454.12 659.231 2444.16 659.557 2441.67C659.884 2439.16 635.764 2422.43 627.009 2421.28C618.255 2420.13 610.231 2426.31 609.085 2435.05C607.94 2443.81 614.108 2451.84 622.861 2452.99Z" fill="#292E42"/>
<path d="M690.521 2450.8C682.764 2455.01 666.272 2479.31 667.475 2481.52C668.677 2483.73 698.031 2483.11 705.787 2478.89C713.544 2474.68 716.416 2464.97 712.2 2457.21C707.984 2449.45 698.279 2446.59 690.521 2450.8Z" fill="#292E42"/>
<path d="M631.023 2488.07C639.564 2490.29 668.208 2483.85 668.845 2481.41C669.481 2478.99 647.644 2459.36 639.1 2457.13C630.559 2454.89 621.825 2460.01 619.593 2468.56C617.363 2477.09 622.479 2485.83 631.023 2488.07Z" fill="#292E42"/>
<path d="M618.779 2291.77C617.272 2295.88 619.071 2310.28 620.24 2310.72C621.411 2311.15 632.115 2301.33 633.621 2297.24C635.129 2293.13 633.028 2288.59 628.929 2287.08C624.831 2285.57 620.285 2287.68 618.779 2291.77Z" fill="#292E42"/>
<path d="M602.689 2316.08C607.023 2316.63 620.656 2311.63 620.812 2310.39C620.968 2309.15 608.996 2300.93 604.664 2300.39C600.331 2299.84 596.376 2302.91 595.831 2307.24C595.285 2311.57 598.356 2315.53 602.689 2316.08Z" fill="#292E42"/>
<path d="M630.453 2313.04C627.843 2318.67 628.709 2339.28 630.316 2340.03C631.921 2340.77 648.223 2328.12 650.833 2322.49C653.445 2316.87 651 2310.19 645.372 2307.57C639.745 2304.96 633.065 2307.41 630.453 2313.04Z" fill="#292E42"/>
<path d="M604.791 2347.41C610.947 2348.19 630.317 2341.09 630.539 2339.33C630.759 2337.57 613.753 2325.89 607.596 2325.12C601.441 2324.35 595.823 2328.71 595.048 2334.87C594.273 2341.03 598.635 2346.64 604.791 2347.41Z" fill="#292E42"/>
<path d="M2648.15 2453.6C2648.15 2453.6 2101.23 1967.96 3083.2 1176.65C3083.2 1176.65 3463.52 2418.67 2648.15 2453.6Z" fill="#B92B00"/>
<path d="M3084 1174.25L2590.81 2381.37C2481.48 2220.55 2319.96 1789.93 3084 1174.25Z" fill="#FF5303"/>
<path d="M2611.64 2332.73C2611.33 2332.73 2611.04 2332.68 2610.75 2332.56C2609.56 2332.08 2608.99 2330.71 2609.47 2329.52L3081.84 1173.36C3082.32 1172.17 3083.68 1171.6 3084.88 1172.08C3086.07 1172.57 3086.65 1173.95 3086.16 1175.13L2613.8 2331.28C2613.43 2332.19 2612.56 2332.73 2611.64 2332.73Z" fill="#A22001"/>
<path d="M2837.4 1780.15C2836.53 1780.15 2835.71 1779.65 2835.31 1778.83C2834.73 1777.67 2835.23 1776.27 2836.39 1775.71L3149.09 1625.44C3150.25 1624.88 3151.65 1625.37 3152.21 1626.53C3152.77 1627.69 3152.28 1629.09 3151.12 1629.64L2838.41 1779.92C2838.09 1780.07 2837.75 1780.15 2837.4 1780.15Z" fill="#A22001"/>
<path d="M2736.21 2027.8C2735.04 2027.8 2734.04 2026.92 2733.89 2025.73L2695.17 1687.37C2695.03 1686.09 2695.96 1684.93 2697.24 1684.79C2698.48 1684.65 2699.67 1685.56 2699.83 1686.84L2738.55 2025.2C2738.68 2026.48 2737.76 2027.64 2736.48 2027.79C2736.39 2027.8 2736.31 2027.8 2736.21 2027.8Z" fill="#A22001"/>
<path d="M2673.05 2447.8C2673.05 2447.8 2494.57 1882.35 3507.07 1740.35C3507.07 1740.35 3254.91 2762.76 2673.05 2447.8Z" fill="#03284B"/>
<path d="M3507.07 1740.35L2673.05 2447.8C2673.05 2447.8 3181.08 2833.05 3507.07 1740.35Z" fill="#383D46"/>
<path d="M3336.69 2021.97C3336.56 2022.03 3336.41 2022.07 3336.27 2022.11L3091.75 2084.53C3089.89 2085 3088.01 2083.88 3087.53 2082.04C3087.07 2080.17 3088.21 2078.31 3090.04 2077.83L3334.56 2015.4C3336.41 2014.93 3338.29 2016.05 3338.76 2017.91C3339.2 2019.61 3338.28 2021.35 3336.69 2021.97Z" fill="#03284B"/>
<path d="M3093.77 2325.61C3093.55 2325.71 3093.28 2325.77 3093.01 2325.81L2762.77 2375.55C2760.89 2375.84 2759.12 2374.53 2758.84 2372.64C2758.56 2370.76 2759.84 2368.99 2761.75 2368.71L3091.99 2318.97C3093.88 2318.69 3095.64 2319.99 3095.92 2321.88C3096.17 2323.51 3095.24 2325.03 3093.77 2325.61Z" fill="#03284B"/>
<path d="M2748.61 2502.4C2748.45 2502.4 2748.31 2502.39 2748.15 2502.35C2746.88 2502.08 2746.07 2500.84 2746.33 2499.57C2815.97 2168.4 2884.93 1932.92 2940.51 1836.49C2941.75 1834.35 2942.64 1832.8 2942.96 1832.03C2943.47 1830.84 2944.84 1830.28 2946.03 1830.77C2947.23 1831.28 2947.79 1832.65 2947.28 1833.85C2946.84 1834.89 2945.99 1836.37 2944.57 1838.84C2889.24 1934.84 2820.47 2169.84 2750.92 2500.55C2750.69 2501.65 2749.71 2502.41 2748.61 2502.4Z" fill="#DBF3F3"/>
<path d="M2983.24 1816.13C2976.61 1826.99 2940.47 1848.95 2937.37 1847.05C2934.27 1845.16 2937.31 1802.97 2943.93 1792.12C2950.56 1781.27 2964.73 1777.84 2975.6 1784.47C2986.45 1791.09 2989.88 1805.28 2983.24 1816.13Z" fill="#DBF3F3"/>
<path d="M2913.01 1853.39C2917.79 1865.49 2913.48 1908.55 2910.03 1909.92C2906.57 1911.28 2873.97 1882.83 2869.19 1870.72C2864.4 1858.61 2870.33 1844.93 2882.43 1840.15C2894.53 1835.36 2908.23 1841.29 2913.01 1853.39Z" fill="#DBF3F3"/>
<path d="M2964.31 1923.69C2951.44 1925.63 2910.45 1911.72 2909.91 1908.05C2909.35 1904.37 2944.43 1879.03 2957.29 1877.09C2970.16 1875.15 2982.16 1884.01 2984.11 1896.88C2986.04 1909.75 2977.17 1921.75 2964.31 1923.69Z" fill="#DBF3F3"/>
<path d="M2820.32 2076.84C2830.49 2096.17 2831.08 2168.8 2825.56 2171.71C2820.04 2174.61 2760.49 2133.01 2750.32 2113.69C2740.15 2094.36 2747.56 2070.44 2766.89 2060.27C2786.23 2050.09 2810.13 2057.51 2820.32 2076.84Z" fill="#DBF3F3"/>
<path d="M2918.64 2184.88C2897.52 2190.44 2826.61 2174.65 2825.03 2168.61C2823.44 2162.59 2877.37 2113.95 2898.51 2108.37C2919.63 2102.81 2941.25 2115.44 2946.81 2136.56C2952.37 2157.68 2939.76 2179.31 2918.64 2184.88Z" fill="#DBF3F3"/>
<path d="M2770.6 2162.4C2787.95 2182.73 2808.21 2269.28 2802.4 2274.24C2796.6 2279.19 2714.32 2245.57 2696.96 2225.24C2679.61 2204.91 2682.03 2174.36 2702.36 2157C2722.69 2139.65 2753.24 2142.07 2770.6 2162.4Z" fill="#DBF3F3"/>
<path d="M2910.01 2302.88C2883.6 2307 2799.28 2278.85 2798.11 2271.32C2796.93 2263.77 2868.72 2211.35 2895.13 2207.24C2921.55 2203.12 2946.28 2221.21 2950.4 2247.61C2954.51 2274.03 2936.43 2298.77 2910.01 2302.88Z" fill="#DBF3F3"/>
<path d="M2744.52 2270.68C2761.88 2291.01 2782.13 2377.56 2776.33 2382.51C2770.53 2387.47 2688.24 2353.85 2670.89 2333.52C2653.53 2313.19 2655.96 2282.64 2676.28 2265.28C2696.61 2247.93 2727.17 2250.35 2744.52 2270.68Z" fill="#DBF3F3"/>
<path d="M2883.95 2411.16C2857.53 2415.27 2773.21 2387.13 2772.04 2379.59C2770.87 2372.05 2842.64 2319.63 2869.05 2315.51C2895.47 2311.4 2920.21 2329.48 2924.32 2355.89C2928.44 2382.31 2910.36 2407.05 2883.95 2411.16Z" fill="#DBF3F3"/>
<path d="M2678.99 2409.52C2702.77 2421.72 2754.48 2494.03 2751 2500.81C2747.52 2507.6 2658.64 2507.87 2634.84 2495.67C2611.05 2483.48 2601.65 2454.32 2613.84 2430.52C2626.04 2406.73 2655.2 2397.33 2678.99 2409.52Z" fill="#DBF3F3"/>
<path d="M2861.81 2517.95C2836.12 2525.33 2748.95 2507.95 2746.84 2500.61C2744.73 2493.28 2809.4 2432.29 2835.09 2424.91C2860.79 2417.53 2887.6 2432.37 2894.97 2458.07C2902.35 2483.76 2887.51 2510.57 2861.81 2517.95Z" fill="#DBF3F3"/>
<path d="M2884.47 1922.93C2889.33 1935.23 2884.95 1978.97 2881.44 1980.37C2877.93 1981.76 2844.81 1952.84 2839.95 1940.55C2835.08 1928.25 2841.11 1914.33 2853.4 1909.48C2865.71 1904.61 2879.61 1910.64 2884.47 1922.93Z" fill="#DBF3F3"/>
<path d="M2934.96 1995.31C2921.88 1997.28 2880.24 1983.15 2879.68 1979.43C2879.12 1975.69 2914.75 1949.93 2927.83 1947.96C2940.91 1946 2953.09 1955 2955.07 1968.07C2957.04 1981.15 2948.03 1993.35 2934.96 1995.31Z" fill="#DBF3F3"/>
<path d="M2850.69 1988.15C2859.01 2004.99 2857.89 2067.44 2853.09 2069.81C2848.28 2072.19 2798.01 2035.11 2789.71 2018.27C2781.39 2001.41 2788.29 1981.03 2805.13 1972.71C2821.99 1964.39 2842.37 1971.29 2850.69 1988.15Z" fill="#DBF3F3"/>
<path d="M2930.89 2090.32C2912.32 2093.12 2853.16 2073.05 2852.37 2067.75C2851.57 2062.44 2902.19 2025.85 2920.76 2023.05C2939.35 2020.25 2956.67 2033.05 2959.47 2051.63C2962.25 2070.2 2949.47 2087.52 2930.89 2090.32Z" fill="#DBF3F3"/>
<path d="M2511.77 2501.75C2511.67 2501.76 2511.56 2501.76 2511.45 2501.76C2510.59 2501.69 2509.95 2500.93 2510.01 2500.07C2527.44 2273.45 2552.77 2110.63 2581.35 2041.56C2581.99 2040.03 2582.44 2038.92 2582.6 2038.37C2582.83 2037.53 2583.69 2037.05 2584.53 2037.28C2585.37 2037.51 2585.87 2038.37 2585.63 2039.21C2585.43 2039.95 2584.99 2041 2584.27 2042.76C2555.81 2111.53 2530.56 2274.03 2513.15 2500.31C2513.09 2501.07 2512.51 2501.65 2511.77 2501.75Z" fill="#FB8812"/>
<path d="M2608.03 2024.27C2604.56 2032.08 2582.41 2049.87 2580.19 2048.87C2577.96 2047.88 2576.29 2019.52 2579.76 2011.72C2583.23 2003.91 2592.36 2000.39 2600.17 2003.85C2607.97 2007.32 2611.49 2016.45 2608.03 2024.27Z" fill="#FB8812"/>
<path d="M2564.52 2055.21C2568.76 2062.85 2569.65 2091.91 2567.47 2093.12C2565.29 2094.33 2541.09 2078.23 2536.85 2070.59C2532.6 2062.95 2535.36 2053.31 2543 2049.07C2550.64 2044.83 2560.28 2047.57 2564.52 2055.21Z" fill="#FB8812"/>
<path d="M2604.83 2097.55C2596.43 2099.96 2567.92 2094.28 2567.23 2091.89C2566.53 2089.49 2587.68 2069.55 2596.08 2067.13C2604.48 2064.72 2613.24 2069.56 2615.65 2077.96C2618.07 2086.36 2613.23 2095.13 2604.83 2097.55Z" fill="#FB8812"/>
<path d="M2522.32 2212.11C2530.79 2224.09 2537.52 2272.4 2534.11 2274.83C2530.69 2277.24 2487.4 2254.75 2478.93 2242.76C2470.47 2230.79 2473.32 2214.21 2485.31 2205.75C2497.28 2197.28 2513.85 2200.13 2522.32 2212.11Z" fill="#FB8812"/>
<path d="M2597.24 2275.45C2583.65 2281 2535.07 2276.69 2533.48 2272.81C2531.89 2268.93 2563.56 2231.83 2577.15 2226.28C2590.72 2220.72 2606.23 2227.24 2611.77 2240.81C2617.33 2254.4 2610.81 2269.91 2597.24 2275.45Z" fill="#FB8812"/>
<path d="M2496.69 2273.43C2510.03 2285.45 2531.08 2341.31 2527.65 2345.12C2524.21 2348.92 2466.49 2333.73 2453.16 2321.71C2439.83 2309.68 2438.76 2289.13 2450.79 2275.8C2462.81 2262.47 2483.36 2261.4 2496.69 2273.43Z" fill="#FB8812"/>
<path d="M2601.81 2354.79C2584.59 2359.84 2525.97 2348.47 2524.53 2343.55C2523.09 2338.63 2566.31 2297.44 2583.53 2292.4C2600.77 2287.35 2618.83 2297.23 2623.87 2314.45C2628.92 2331.68 2619.04 2349.75 2601.81 2354.79Z" fill="#FB8812"/>
<path d="M2488.8 2347.8C2502.13 2359.83 2523.19 2415.69 2519.76 2419.49C2516.32 2423.29 2458.59 2408.11 2445.27 2396.08C2431.93 2384.07 2430.87 2363.51 2442.89 2350.17C2454.91 2336.84 2475.47 2335.79 2488.8 2347.8Z" fill="#FB8812"/>
<path d="M2593.91 2429.17C2576.68 2434.21 2518.08 2422.84 2516.64 2417.92C2515.2 2413 2558.41 2371.83 2575.64 2366.77C2592.87 2361.73 2610.93 2371.61 2615.97 2388.84C2621.01 2406.07 2611.15 2424.12 2593.91 2429.17Z" fill="#FB8812"/>
<path d="M2457.29 2445.99C2474.2 2452.03 2514.95 2495.65 2513.23 2500.48C2511.51 2505.31 2452.33 2513.25 2435.43 2507.21C2418.52 2501.17 2409.72 2482.57 2415.75 2465.67C2421.79 2448.76 2440.39 2439.95 2457.29 2445.99Z" fill="#FB8812"/>
<path d="M2588.51 2502.2C2572.05 2509.36 2512.48 2505.41 2510.44 2500.71C2508.4 2496.01 2546.12 2449.75 2562.59 2442.59C2579.05 2435.43 2598.2 2442.97 2605.36 2459.44C2612.52 2475.89 2604.97 2495.05 2588.51 2502.2Z" fill="#FB8812"/>
<path d="M2551.6 2104.03C2555.91 2111.79 2556.81 2141.29 2554.6 2142.53C2552.37 2143.76 2527.8 2127.4 2523.48 2119.64C2519.17 2111.88 2521.97 2102.08 2529.73 2097.77C2537.49 2093.47 2547.28 2096.25 2551.6 2104.03Z" fill="#FB8812"/>
<path d="M2591.53 2147.8C2583 2150.25 2554.04 2144.49 2553.35 2142.05C2552.64 2139.61 2574.12 2119.35 2582.65 2116.89C2591.19 2114.44 2600.09 2119.37 2602.55 2127.91C2605 2136.44 2600.07 2145.35 2591.53 2147.8Z" fill="#FB8812"/>
<path d="M2534.8 2150.39C2541.81 2160.88 2546.53 2202.56 2543.53 2204.56C2540.55 2206.56 2503.83 2186.27 2496.83 2175.77C2489.81 2165.29 2492.63 2151.11 2503.12 2144.09C2513.6 2137.08 2527.79 2139.91 2534.8 2150.39Z" fill="#FB8812"/>
<path d="M2597.13 2211.41C2585.01 2214.91 2543.87 2206.71 2542.87 2203.25C2541.88 2199.79 2572.39 2171 2584.51 2167.51C2596.64 2164.03 2609.29 2171.03 2612.77 2183.16C2616.27 2195.28 2609.25 2207.93 2597.13 2211.41Z" fill="#FB8812"/>
<path d="M920.42 907.336L919.827 907.642C920.32 908.605 920.835 909.54 921.38 910.457C934.75 932.958 963.472 941.467 987.098 929.399C988.06 928.904 989.006 928.389 989.924 927.844C1012.42 914.479 1020.93 885.751 1008.86 862.124C1008.37 861.16 1007.84 860.215 1007.3 859.298C993.936 836.808 965.207 828.287 941.589 840.367C940.625 840.862 939.681 841.376 938.762 841.922C916.269 855.287 907.752 884.015 919.827 907.642L920.42 907.336L921.012 907.031C909.257 884.036 917.554 856.075 939.443 843.069C940.337 842.537 941.258 842.037 942.197 841.556C965.187 829.804 993.151 838.097 1006.15 859.979C1006.68 860.873 1007.19 861.796 1007.67 862.735C1019.42 885.719 1011.13 913.691 989.243 926.697C988.349 927.229 987.429 927.729 986.489 928.21C963.497 939.963 935.535 931.669 922.526 909.776C921.995 908.882 921.493 907.97 921.012 907.031L920.42 907.336Z" fill="#FB8812"/>
<path d="M1764.5 177.338L1763.99 178.571C1787.8 188.291 1806.14 196.453 1820.04 204.806C1833.95 213.153 1843.38 221.633 1849.55 232.019C1855.69 242.358 1858.66 254.661 1859.41 270.827C1860.16 286.974 1858.69 306.923 1856.01 332.383L1855.03 341.697L1858.57 333.023C1868.29 309.21 1876.46 290.861 1884.8 276.971C1893.15 263.062 1901.63 253.634 1912.01 247.464C1922.35 241.32 1934.66 238.353 1950.82 237.592C1966.97 236.85 1986.93 238.312 2012.38 240.996L2021.7 241.987L2013.02 238.445C1989.22 228.718 1970.87 220.544 1956.97 212.209C1943.06 203.862 1933.63 195.382 1927.46 184.996C1921.32 174.657 1918.34 162.342 1917.6 146.188C1916.84 130.041 1918.31 110.08 1920.99 84.6319L1921.98 75.2997L1918.43 83.9807C1908.71 107.793 1900.55 126.136 1892.2 140.045C1883.86 153.953 1875.38 163.381 1864.99 169.551C1854.65 175.695 1842.35 178.663 1826.18 179.412C1810.04 180.166 1790.08 178.685 1764.63 176.019L1755.31 175.028L1763.99 178.571L1764.5 177.338L1764.35 178.664C1789.85 181.35 1809.89 182.843 1826.31 182.081C1842.71 181.314 1855.52 178.28 1866.35 171.844C1877.23 165.381 1886.02 155.535 1894.49 141.415C1902.97 127.288 1911.17 108.847 1920.91 84.9906L1919.67 84.489L1918.34 84.3461C1915.65 109.842 1914.17 129.895 1914.93 146.316C1915.7 162.72 1918.73 175.526 1925.17 186.359C1931.63 197.237 1941.47 206.016 1955.6 214.496C1969.72 222.977 1988.16 231.174 2012.01 240.903L2012.52 239.67L2012.66 238.345C1987.17 235.658 1967.12 234.172 1950.69 234.934C1934.29 235.701 1921.48 238.735 1910.65 245.171C1899.77 251.635 1890.98 261.48 1882.51 275.6C1874.03 289.727 1865.84 308.168 1856.11 332.018L1857.33 332.514L1858.66 332.657C1861.35 307.161 1862.83 287.109 1862.08 270.699C1861.31 254.296 1858.28 241.489 1851.84 230.656C1845.38 219.778 1835.53 210.987 1821.41 202.519C1807.28 194.038 1788.84 185.841 1764.99 176.101L1764.5 177.338L1764.35 178.664L1764.5 177.338Z" fill="#FB8812"/>
<path d="M745.308 572.086L745.621 574.055C758.47 572.005 769.067 570.563 777.982 570.058C784.663 569.671 790.391 569.804 795.405 570.562C802.937 571.716 808.846 574.208 814.265 578.557C819.678 582.909 824.602 589.196 829.804 597.954C834.265 605.462 838.915 614.75 844.277 626.096L850.277 638.801L848.056 624.921C845.999 612.076 844.566 601.482 844.056 592.572C843.668 585.885 843.805 580.159 844.559 575.135C845.71 567.612 848.201 561.697 852.555 556.287C856.902 550.865 863.198 545.946 871.955 540.742C879.458 536.285 888.752 531.631 900.093 526.273L912.808 520.269L898.92 522.487C886.08 524.549 875.475 525.98 866.567 526.496C859.885 526.884 854.152 526.738 849.137 525.98C841.612 524.837 835.704 522.346 830.285 517.997C824.871 513.645 819.941 507.346 814.739 498.588C810.285 491.091 805.628 481.792 800.274 470.456L794.267 457.741L796.487 471.621C798.543 484.466 799.983 495.072 800.494 503.981C800.881 510.668 800.744 516.395 799.983 521.407C798.833 528.93 796.342 534.846 791.995 540.267C787.641 545.677 781.352 550.608 772.587 555.8C765.084 560.258 755.797 564.923 744.45 570.269L731.743 576.284L745.621 574.055L745.308 572.086L746.16 573.89C757.552 568.518 766.934 563.812 774.631 559.238C782.611 554.497 788.789 549.88 793.439 544.728C796.921 540.86 799.53 536.689 801.34 532.031C804.05 525.023 804.96 516.977 804.642 507.115C804.318 497.242 802.758 485.498 800.44 470.994L798.466 471.313L796.653 472.158C802.037 483.553 806.731 492.939 811.3 500.631C816.048 508.62 820.664 514.796 825.817 519.442C829.683 522.93 833.854 525.538 838.518 527.343C845.52 530.052 853.567 530.963 863.433 530.638C873.311 530.321 885.045 528.762 899.554 526.438L899.241 524.468L898.382 522.652C886.997 528.037 877.609 532.73 869.912 537.304C861.932 542.045 855.754 546.662 851.104 551.814C847.621 555.682 845.013 559.853 843.209 564.523C840.492 571.519 839.583 579.566 839.908 589.438C840.231 599.312 841.785 611.044 844.11 625.56L846.083 625.24L847.89 624.384C842.513 613 837.818 603.614 833.243 595.911C828.5 587.934 823.886 581.758 818.725 577.1C814.867 573.624 810.695 571.016 806.032 569.211C799.022 566.49 790.976 565.579 781.11 565.904C771.237 566.233 759.504 567.792 744.989 570.104L745.308 572.086L746.16 573.89L745.308 572.086Z" fill="#383D46"/>
<path d="M1459.21 461.036C1468.02 475.869 1487.19 480.749 1502.02 471.935C1516.85 463.122 1521.73 443.954 1512.92 429.121C1504.1 414.277 1484.93 409.397 1470.1 418.21C1455.27 427.023 1450.39 446.192 1459.21 461.036Z" fill="#FF5303"/>
<path d="M482.55 1025.48C461.935 1034.48 452.503 1058.47 461.484 1079.08C470.47 1099.71 494.465 1109.13 515.086 1100.15C535.708 1091.17 545.14 1067.17 536.153 1046.55C527.167 1025.93 503.171 1016.5 482.55 1025.48Z" fill="#FF5303"/>
<path d="M3228.32 919.066L3230.98 919.066C3230.98 507.027 2896.96 173 2484.92 173C2350.32 173 2224.02 208.639 2115 271.013L2116.33 273.32C2224.96 211.173 2350.78 175.667 2484.92 175.667C2690.21 175.667 2876.05 258.866 3010.58 393.399C3145.12 527.933 3228.32 713.774 3228.32 919.066Z" fill="#383D46"/>
<path d="M2875.56 404.16C2868.92 454.387 2904.24 500.507 2954.48 507.147C3004.7 513.8 3050.81 478.48 3057.46 428.24C3064.12 378.013 3028.78 331.907 2978.56 325.253C2928.32 318.6 2882.21 353.933 2875.56 404.16Z" fill="#FB8812"/>
<path d="M2981.25 499.36C3025.65 496.24 3063.22 462.293 3069.29 416.453C3069.86 412.187 3070.13 407.96 3070.13 403.773C3070.13 356.507 3035.12 315.4 2986.98 309.027C2982.73 308.467 2978.49 308.187 2974.32 308.187C2961.69 308.187 2949.5 310.68 2938.3 315.267L2938.81 316.493C2949.85 311.987 2961.86 309.52 2974.32 309.52C2978.44 309.52 2982.61 309.787 2986.81 310.347C3034.28 316.627 3068.8 357.173 3068.8 403.773C3068.8 407.893 3068.53 412.067 3067.97 416.28C3061.98 461.48 3024.93 494.947 2981.16 498.027L2981.25 499.36Z" fill="#383D46"/>
</g>
<defs>
<clipPath id="clip0_510_1518">
<rect width="3598.91" height="2666.67" fill="white"/>
</clipPath>
</defs>
</svg>
